Lora-Bold Italic.ufo
<glyph name="quotedbl" format="1">
  <advance width="729"/>
  <unicode hex="0022"/>
  <outline>
    <contour>
      <point x="507" y="1467" type="line"/>
      <point x="496" y="1006" type="line"/>
      <point x="623" y="1006" type="line"/>
      <point x="667" y="1467" type="line"/>
    </contour>
    <contour>
      <point x="173" y="1467" type="line"/>
      <point x="162" y="1006" type="line"/>
      <point x="289" y="1006" type="line"/>
      <point x="333" y="1467" type="line"/>
    </contour>
  </outline>
</glyph>
<glyph name="numbersign" format="1">
  <advance width="1655"/>
  <unicode hex="0023"/>
  <outline>
    <contour>
      <point x="1218" y="1434" type="line"/>
      <point x="1135" y="1083" type="line"/>
      <point x="700" y="1083" type="line"/>
      <point x="780" y="1434" type="line"/>
      <point x="645" y="1434" type="line"/>
      <point x="562" y="1083" type="line"/>
      <point x="221" y="1083" type="line"/>
      <point x="188" y="961" type="line"/>
      <point x="533" y="961" type="line"/>
      <point x="422" y="487" type="line"/>
      <point x="86" y="487" type="line"/>
      <point x="53" y="365" type="line"/>
      <point x="393" y="365" type="line"/>
      <point x="307" y="0" type="line"/>
      <point x="454" y="0" type="line"/>
      <point x="537" y="365" type="line"/>
      <point x="966" y="365" type="line"/>
      <point x="880" y="0" type="line"/>
      <point x="1028" y="0" type="line"/>
      <point x="1110" y="365" type="line"/>
      <point x="1448" y="365" type="line"/>
      <point x="1480" y="487" type="line"/>
      <point x="1138" y="487" type="line"/>
      <point x="1245" y="961" type="line"/>
      <point x="1585" y="961" type="line"/>
      <point x="1616" y="1081" type="line"/>
      <point x="1616" y="1083" type="line"/>
      <point x="1273" y="1083" type="line"/>
      <point x="1353" y="1434" type="line"/>
    </contour>
    <contour>
      <point x="995" y="487" type="line"/>
      <point x="564" y="487" type="line"/>
      <point x="672" y="961" type="line"/>
      <point x="1106" y="961" type="line"/>
    </contour>
  </outline>
</glyph>
<glyph name="dollar" format="1">
  <advance width="1083"/>
  <unicode hex="0024"/>
  <outline>
    <contour>
      <point x="545" y="1706" type="line"/>
      <point x="532" y="1467" type="line"/>
      <point x="231" y="1453"/>
      <point x="133" y="1236"/>
      <point x="127" y="1107" type="curve" smooth="yes"/>
      <point x="106" y="648"/>
      <point x="838" y="689"/>
      <point x="820" y="303" type="curve" smooth="yes"/>
      <point x="813" y="154"/>
      <point x="692" y="48"/>
      <point x="532" y="48" type="curve" smooth="yes"/>
      <point x="315" y="48"/>
      <point x="178" y="157"/>
      <point x="176" y="409" type="curve"/>
      <point x="104" y="409" type="line"/>
      <point x="82" y="-26" type="line"/>
      <point x="193" y="-26" type="line"/>
      <point x="187" y="39" type="line"/>
      <point x="271" y="-9"/>
      <point x="380" y="-29"/>
      <point x="465" y="-33" type="curve"/>
      <point x="453" y="-313" type="line"/>
      <point x="559" y="-313" type="line"/>
      <point x="575" y="-33" type="line"/>
      <point x="844" y="-14"/>
      <point x="983" y="158"/>
      <point x="993" y="348" type="curve" smooth="yes"/>
      <point x="1016" y="794"/>
      <point x="286" y="779"/>
      <point x="292" y="1142" type="curve" smooth="yes"/>
      <point x="294" y="1264"/>
      <point x="385" y="1386"/>
      <point x="557" y="1386" type="curve" smooth="yes"/>
      <point x="797" y="1386"/>
      <point x="860" y="1216"/>
      <point x="862" y="1019" type="curve"/>
      <point x="938" y="1019" type="line"/>
      <point x="963" y="1467" type="line"/>
      <point x="860" y="1467" type="line"/>
      <point x="863" y="1375" type="line"/>
      <point x="790" y="1425"/>
      <point x="716" y="1454"/>
      <point x="640" y="1464" type="curve"/>
      <point x="655" y="1706" type="line"/>
    </contour>
  </outline>
</glyph>
<glyph name="percent" format="1">
  <advance width="1788"/>
  <unicode hex="0025"/>
  <outline>
    <contour>
      <point x="233" y="45" type="line"/>
      <point x="313" y="-33" type="line"/>
      <point x="1543" y="1381" type="line"/>
      <point x="1452" y="1467" type="line"/>
    </contour>
    <contour>
      <point x="256" y="1463"/>
      <point x="115" y="1261"/>
      <point x="104" y="1070" type="curve" smooth="yes"/>
      <point x="94" y="873"/>
      <point x="211" y="687"/>
      <point x="455" y="687" type="curve" smooth="yes"/>
      <point x="664" y="687"/>
      <point x="842" y="878"/>
      <point x="852" y="1089" type="curve" smooth="yes"/>
      <point x="862" y="1277"/>
      <point x="750" y="1472"/>
      <point x="496" y="1467" type="curve" smooth="yes"/>
    </contour>
    <contour>
      <point x="647" y="1391"/>
      <point x="682" y="1190"/>
      <point x="674" y="1053" type="curve" smooth="yes"/>
      <point x="668" y="926"/>
      <point x="614" y="764"/>
      <point x="465" y="764" type="curve" smooth="yes"/>
      <point x="303" y="764"/>
      <point x="273" y="969"/>
      <point x="282" y="1100" type="curve" smooth="yes"/>
      <point x="286" y="1204"/>
      <point x="340" y="1391"/>
      <point x="494" y="1391" type="curve" smooth="yes"/>
    </contour>
    <contour>
      <point x="1497" y="669"/>
      <point x="1531" y="468"/>
      <point x="1524" y="331" type="curve" smooth="yes"/>
      <point x="1517" y="204"/>
      <point x="1464" y="42"/>
      <point x="1315" y="42" type="curve" smooth="yes"/>
      <point x="1153" y="42"/>
      <point x="1125" y="247"/>
      <point x="1132" y="378" type="curve" smooth="yes"/>
      <point x="1138" y="482"/>
      <point x="1190" y="669"/>
      <point x="1344" y="669" type="curve" smooth="yes"/>
    </contour>
    <contour>
      <point x="1106" y="743"/>
      <point x="964" y="541"/>
      <point x="954" y="350" type="curve" smooth="yes"/>
      <point x="944" y="153"/>
      <point x="1061" y="-33"/>
      <point x="1305" y="-33" type="curve" smooth="yes"/>
      <point x="1514" y="-33"/>
      <point x="1691" y="158"/>
      <point x="1702" y="369" type="curve" smooth="yes"/>
      <point x="1711" y="557"/>
      <point x="1600" y="752"/>
      <point x="1346" y="747" type="curve" smooth="yes"/>
    </contour>
  </outline>
</glyph>
<glyph name="ampersand" format="1">
  <advance width="1399"/>
  <unicode hex="0026"/>
  <outline>
    <contour>
      <point x="383" y="1467"/>
      <point x="192" y="1327"/>
      <point x="176" y="1098" type="curve"/>
      <point x="165" y="956"/>
      <point x="228" y="837"/>
      <point x="456" y="788" type="curve"/>
      <point x="208" y="755"/>
      <point x="79" y="569"/>
      <point x="69" y="379" type="curve" smooth="yes"/>
      <point x="55" y="100"/>
      <point x="287" y="-33"/>
      <point x="586" y="-33" type="curve" smooth="yes"/>
      <point x="1026" y="-33"/>
      <point x="1151" y="283"/>
      <point x="1147" y="501" type="curve"/>
      <point x="1308" y="516"/>
      <point x="1350" y="580"/>
      <point x="1415" y="680" type="curve"/>
      <point x="1370" y="715" type="line"/>
      <point x="1282" y="631"/>
      <point x="1198" y="629"/>
      <point x="1089" y="629" type="curve" smooth="yes"/>
      <point x="915" y="629"/>
      <point x="831" y="604"/>
      <point x="739" y="467" type="curve"/>
      <point x="780" y="426" type="line"/>
      <point x="888" y="510"/>
      <point x="953" y="498"/>
      <point x="1058" y="498" type="curve"/>
      <point x="1058" y="266"/>
      <point x="929" y="63"/>
      <point x="612" y="63" type="curve" smooth="yes"/>
      <point x="452" y="63"/>
      <point x="252" y="174"/>
      <point x="264" y="420" type="curve" smooth="yes"/>
      <point x="270" y="530"/>
      <point x="350" y="735"/>
      <point x="610" y="735" type="curve" smooth="yes"/>
      <point x="688" y="733" type="line"/>
      <point x="692" y="823" type="line"/>
      <point x="667" y="822"/>
      <point x="668" y="821"/>
      <point x="610" y="821" type="curve" smooth="yes"/>
      <point x="381" y="821"/>
      <point x="350" y="1018"/>
      <point x="356" y="1114" type="curve"/>
      <point x="364" y="1264"/>
      <point x="463" y="1394"/>
      <point x="635" y="1394" type="curve" smooth="yes"/>
      <point x="739" y="1394"/>
      <point x="818" y="1342"/>
      <point x="828" y="1285" type="curve"/>
      <point x="815" y="1263"/>
      <point x="809" y="1240"/>
      <point x="810" y="1217" type="curve" smooth="yes"/>
      <point x="812" y="1170"/>
      <point x="853" y="1141"/>
      <point x="898" y="1143" type="curve" smooth="yes"/>
      <point x="952" y="1145"/>
      <point x="982" y="1190"/>
      <point x="982" y="1240" type="curve" smooth="yes"/>
      <point x="982" y="1355"/>
      <point x="847" y="1467"/>
      <point x="629" y="1467" type="curve" smooth="yes"/>
    </contour>
  </outline>
</glyph>
<glyph name="six" format="1">
  <advance width="1135"/>
  <unicode hex="0036"/>
  <outline>
    <contour>
      <point x="220" y="1459"/>
      <point x="130" y="920"/>
      <point x="113" y="676" type="curve" smooth="yes"/>
      <point x="84" y="242"/>
      <point x="195" y="-33"/>
      <point x="543" y="-33" type="curve" smooth="yes"/>
      <point x="818" y="-33"/>
      <point x="1020" y="180"/>
      <point x="1033" y="436" type="curve"/>
      <point x="1045" y="643"/>
      <point x="963" y="895"/>
      <point x="635" y="895" type="curve" smooth="yes"/>
      <point x="481" y="895"/>
      <point x="367" y="815"/>
      <point x="294" y="725" type="curve"/>
      <point x="312" y="920"/>
      <point x="375" y="1382"/>
      <point x="687" y="1389" type="curve" smooth="yes"/>
      <point x="797" y="1392"/>
      <point x="861" y="1328"/>
      <point x="873" y="1281" type="curve"/>
      <point x="853" y="1257"/>
      <point x="845" y="1225"/>
      <point x="845" y="1202" type="curve" smooth="yes"/>
      <point x="845" y="1156"/>
      <point x="879" y="1114"/>
      <point x="935" y="1114" type="curve" smooth="yes"/>
      <point x="987" y="1114"/>
      <point x="1027" y="1152"/>
      <point x="1031" y="1210" type="curve" smooth="yes"/>
      <point x="1038" y="1315"/>
      <point x="930" y="1471"/>
      <point x="687" y="1467" type="curve" smooth="yes"/>
    </contour>
    <contour>
      <point x="828" y="805"/>
      <point x="848" y="545"/>
      <point x="840" y="391" type="curve"/>
      <point x="832" y="211"/>
      <point x="738" y="47"/>
      <point x="545" y="47" type="curve" smooth="yes"/>
      <point x="331" y="47"/>
      <point x="280" y="317"/>
      <point x="285" y="575" type="curve"/>
      <point x="329" y="695"/>
      <point x="468" y="805"/>
      <point x="599" y="805" type="curve" smooth="yes"/>
    </contour>
  </outline>
</glyph>
<glyph name="nine" format="1">
  <advance width="1130"/>
  <unicode hex="0039"/>
  <outline>
    <contour>
      <point x="303" y="1472"/>
      <point x="133" y="1255"/>
      <point x="119" y="999" type="curve"/>
      <point x="109" y="793"/>
      <point x="178" y="541"/>
      <point x="506" y="541" type="curve" smooth="yes"/>
      <point x="666" y="541"/>
      <point x="781" y="622"/>
      <point x="852" y="712" type="curve"/>
      <point x="841" y="483"/>
      <point x="780" y="45"/>
      <point x="475" y="45" type="curve" smooth="yes"/>
      <point x="340" y="45"/>
      <point x="294" y="117"/>
      <point x="278" y="170" type="curve"/>
      <point x="301" y="188"/>
      <point x="313" y="228"/>
      <point x="313" y="251" type="curve" smooth="yes"/>
      <point x="313" y="297"/>
      <point x="281" y="340"/>
      <point x="225" y="340" type="curve" smooth="yes"/>
      <point x="173" y="340"/>
      <point x="132" y="301"/>
      <point x="127" y="243" type="curve" smooth="yes"/>
      <point x="117" y="115"/>
      <point x="228" y="-33"/>
      <point x="477" y="-33" type="curve" smooth="yes"/>
      <point x="936" y="-33"/>
      <point x="1018" y="442"/>
      <point x="1030" y="741" type="curve" smooth="yes"/>
      <point x="1046" y="1133"/>
      <point x="961" y="1463"/>
      <point x="598" y="1467" type="curve"/>
    </contour>
    <contour>
      <point x="802" y="1388"/>
      <point x="852" y="1125"/>
      <point x="855" y="851" type="curve"/>
      <point x="808" y="736"/>
      <point x="678" y="633"/>
      <point x="553" y="633" type="curve" smooth="yes"/>
      <point x="324" y="633"/>
      <point x="297" y="891"/>
      <point x="305" y="1044" type="curve" smooth="yes"/>
      <point x="314" y="1225"/>
      <point x="404" y="1388"/>
      <point x="580" y="1388" type="curve" smooth="yes"/>
    </contour>
  </outline>
</glyph>
<glyph name="D" format="1">
  <advance width="1511"/>
  <unicode hex="0044"/>
  <outline>
    <contour>
      <point x="158" y="1434" type="line"/>
      <point x="152" y="1343" type="line"/>
      <point x="304" y="1352" type="line"/>
      <point x="297" y="1311"/>
      <point x="292" y="1260"/>
      <point x="289" y="1204" type="curve" smooth="yes"/>
      <point x="240" y="319" type="line"/>
      <point x="234" y="174"/>
      <point x="240" y="74"/>
      <point x="87" y="68" type="curve"/>
      <point x="82" y="0" type="line"/>
      <point x="613" y="0" type="line" smooth="yes"/>
      <point x="1156" y="0"/>
      <point x="1423" y="371"/>
      <point x="1423" y="770" type="curve" smooth="yes"/>
      <point x="1423" y="1226"/>
      <point x="1108" y="1438"/>
      <point x="633" y="1436" type="curve" smooth="yes"/>
    </contour>
    <contour>
      <point x="1038" y="1360"/>
      <point x="1232" y="1130"/>
      <point x="1232" y="778" type="curve" smooth="yes"/>
      <point x="1232" y="384"/>
      <point x="982" y="78"/>
      <point x="611" y="78" type="curve" smooth="yes"/>
      <point x="542" y="78"/>
      <point x="482" y="77"/>
      <point x="392" y="82" type="curve"/>
      <point x="398" y="117"/>
      <point x="402" y="168"/>
      <point x="406" y="242" type="curve" smooth="yes"/>
      <point x="453" y="1129" type="line"/>
      <point x="461" y="1288"/>
      <point x="465" y="1360"/>
      <point x="620" y="1360" type="curve" smooth="yes"/>
    </contour>
    <contour>
      <point x="773" y="719" type="move" name="center"/>
    </contour>
    <contour>
      <point x="804" y="1438" type="move" name="top"/>
    </contour>
  </outline>
</glyph>
<glyph name="F" format="1">
  <advance width="1108"/>
  <unicode hex="0046"/>
  <outline>
    <contour>
      <point x="160" y="1434" type="line"/>
      <point x="156" y="1343" type="line"/>
      <point x="306" y="1352" type="line"/>
      <point x="299" y="1311"/>
      <point x="293" y="1260"/>
      <point x="291" y="1204" type="curve" smooth="yes"/>
      <point x="242" y="319" type="line" smooth="yes"/>
      <point x="236" y="174"/>
      <point x="242" y="74"/>
      <point x="89" y="68" type="curve"/>
      <point x="84" y="0" type="line"/>
      <point x="598" y="0" type="line"/>
      <point x="603" y="90" type="line"/>
      <point x="394" y="82" type="line"/>
      <point x="400" y="117"/>
      <point x="406" y="170"/>
      <point x="408" y="244" type="curve" smooth="yes"/>
      <point x="431" y="672" type="line"/>
      <point x="484" y="676"/>
      <point x="537" y="678"/>
      <point x="590" y="678" type="curve" smooth="yes"/>
      <point x="736" y="678"/>
      <point x="795" y="666"/>
      <point x="787" y="498" type="curve"/>
      <point x="854" y="498" type="line"/>
      <point x="877" y="946" type="line"/>
      <point x="809" y="946" type="line"/>
      <point x="801" y="778"/>
      <point x="740" y="756"/>
      <point x="594" y="754" type="curve" smooth="yes"/>
      <point x="435" y="754" type="line"/>
      <point x="454" y="1131" type="line" smooth="yes"/>
      <point x="461" y="1274"/>
      <point x="468" y="1354"/>
      <point x="609" y="1358" type="curve" smooth="yes"/>
      <point x="758" y="1362" type="line" smooth="yes"/>
      <point x="912" y="1366"/>
      <point x="1039" y="1317"/>
      <point x="1027" y="1075" type="curve"/>
      <point x="1094" y="1075" type="line"/>
      <point x="1102" y="1434" type="line"/>
    </contour>
  </outline>
</glyph>
<glyph name="G" format="1">
  <advance width="1542"/>
  <unicode hex="0047"/>
  <outline>
    <contour>
      <point x="368" y="1467"/>
      <point x="123" y="1071"/>
      <point x="102" y="686" type="curve" smooth="yes"/>
      <point x="78" y="238"/>
      <point x="338" y="-33"/>
      <point x="749" y="-33" type="curve" smooth="yes"/>
      <point x="840" y="-33"/>
      <point x="967" y="-12"/>
      <point x="1053" y="21" type="curve" smooth="yes"/>
      <point x="1153" y="59"/>
      <point x="1231" y="74"/>
      <point x="1276" y="74" type="curve" smooth="yes"/>
      <point x="1325" y="74" type="line"/>
      <point x="1341" y="385" type="line" smooth="yes"/>
      <point x="1345" y="440"/>
      <point x="1347" y="629"/>
      <point x="1501" y="629" type="curve"/>
      <point x="1505" y="696" type="line"/>
      <point x="1048" y="696" type="line"/>
      <point x="1044" y="606" type="line"/>
      <point x="1188" y="614" type="line"/>
      <point x="1165" y="168" type="line"/>
      <point x="1055" y="96"/>
      <point x="917" y="66"/>
      <point x="809" y="66" type="curve" smooth="yes"/>
      <point x="485" y="66"/>
      <point x="274" y="346"/>
      <point x="295" y="733" type="curve" smooth="yes"/>
      <point x="315" y="1114"/>
      <point x="563" y="1385"/>
      <point x="854" y="1385" type="curve" smooth="yes"/>
      <point x="1091" y="1385"/>
      <point x="1270" y="1240"/>
      <point x="1274" y="984" type="curve"/>
      <point x="1347" y="984" type="line"/>
      <point x="1372" y="1453" type="line"/>
      <point x="1259" y="1453" type="line"/>
      <point x="1263" y="1355" type="line"/>
      <point x="1151" y="1424"/>
      <point x="993" y="1467"/>
      <point x="846" y="1467" type="curve" smooth="yes"/>
    </contour>
    <contour>
      <point x="881" y="1438" type="move" name="top"/>
    </contour>
    <contour>
      <point x="733" y="0" type="move" name="bottom"/>
    </contour>
  </outline>
</glyph>
<glyph name="N" format="1">
  <advance width="1561"/>
  <unicode hex="004E"/>
  <outline>
    <contour>
      <point x="1145" y="1434" type="line"/>
      <point x="1141" y="1343" type="line"/>
      <point x="1288" y="1352" type="line"/>
      <point x="1282" y="1312"/>
      <point x="1277" y="1263"/>
      <point x="1274" y="1204" type="curve" smooth="yes"/>
      <point x="1231" y="262" type="line"/>
      <point x="1227" y="262" type="line"/>
      <point x="403" y="1434" type="line"/>
      <point x="160" y="1434" type="line"/>
      <point x="156" y="1343" type="line"/>
      <point x="293" y="1352" type="line"/>
      <point x="238" y="229" type="line" smooth="yes"/>
      <point x="236" y="166"/>
      <point x="219" y="68"/>
      <point x="94" y="68" type="curve"/>
      <point x="92" y="0" type="line"/>
      <point x="467" y="0" type="line"/>
      <point x="471" y="90" type="line"/>
      <point x="324" y="82" type="line"/>
      <point x="333" y="146"/>
      <point x="334" y="215"/>
      <point x="338" y="285" type="curve" smooth="yes"/>
      <point x="371" y="1174" type="line"/>
      <point x="375" y="1174" type="line"/>
      <point x="1212" y="-23" type="line"/>
      <point x="1311" y="-23" type="line"/>
      <point x="1368" y="1114" type="line" smooth="yes"/>
      <point x="1376" y="1260"/>
      <point x="1364" y="1360"/>
      <point x="1518" y="1366" type="curve"/>
      <point x="1522" y="1434" type="line"/>
    </contour>
    <contour>
      <point x="829" y="1438" type="move" name="top"/>
    </contour>
    <contour>
      <point x="754" y="0" type="move" name="bottom"/>
    </contour>
  </outline>
</glyph>
<glyph name="P" format="1">
  <advance width="1223"/>
  <unicode hex="0050"/>
  <outline>
    <contour>
      <point x="449" y="1437"/>
      <point x="304" y="1436"/>
      <point x="160" y="1434" type="curve"/>
      <point x="154" y="1343" type="line"/>
      <point x="304" y="1352" type="line"/>
      <point x="297" y="1311"/>
      <point x="292" y="1260"/>
      <point x="289" y="1204" type="curve" smooth="yes"/>
      <point x="242" y="319" type="line"/>
      <point x="236" y="174"/>
      <point x="242" y="74"/>
      <point x="89" y="68" type="curve"/>
      <point x="84" y="0" type="line"/>
      <point x="578" y="0" type="line"/>
      <point x="582" y="92" type="line"/>
      <point x="394" y="82" type="line"/>
      <point x="400" y="117"/>
      <point x="404" y="170"/>
      <point x="408" y="244" type="curve" smooth="yes"/>
      <point x="424" y="541" type="line"/>
      <point x="450" y="539"/>
      <point x="489" y="539"/>
      <point x="503" y="539" type="curve" smooth="yes"/>
      <point x="1064" y="539"/>
      <point x="1197" y="823"/>
      <point x="1199" y="1036" type="curve"/>
      <point x="1199" y="1298"/>
      <point x="1004" y="1437"/>
      <point x="609" y="1437" type="curve" smooth="yes"/>
    </contour>
    <contour>
      <point x="850" y="1357"/>
      <point x="1018" y="1260"/>
      <point x="1006" y="1001" type="curve" smooth="yes"/>
      <point x="994" y="762"/>
      <point x="795" y="620"/>
      <point x="562" y="620" type="curve" smooth="yes"/>
      <point x="511" y="620"/>
      <point x="480" y="621"/>
      <point x="428" y="626" type="curve"/>
      <point x="455" y="1124" type="line"/>
      <point x="461" y="1270"/>
      <point x="471" y="1357"/>
      <point x="601" y="1357" type="curve" smooth="yes"/>
    </contour>
  </outline>
</glyph>
<glyph name="U" format="1">
  <advance width="1524"/>
  <unicode hex="0055"/>
  <outline>
    <contour>
      <point x="1139" y="1434" type="line"/>
      <point x="1135" y="1343" type="line"/>
      <point x="1282" y="1352" type="line"/>
      <point x="1276" y="1311"/>
      <point x="1272" y="1260"/>
      <point x="1268" y="1204" type="curve" smooth="yes"/>
      <point x="1231" y="627" type="line" smooth="yes"/>
      <point x="1209" y="307"/>
      <point x="1075" y="84"/>
      <point x="781" y="84" type="curve" smooth="yes"/>
      <point x="414" y="84"/>
      <point x="371" y="381"/>
      <point x="387" y="686" type="curve" smooth="yes"/>
      <point x="414" y="1204" type="line" smooth="yes"/>
      <point x="418" y="1260"/>
      <point x="426" y="1366"/>
      <point x="566" y="1366" type="curve"/>
      <point x="570" y="1434" type="line"/>
      <point x="115" y="1434" type="line"/>
      <point x="111" y="1346" type="line"/>
      <point x="258" y="1352" type="line"/>
      <point x="250" y="1298"/>
      <point x="246" y="1257"/>
      <point x="242" y="1186" type="curve" smooth="yes"/>
      <point x="215" y="696" type="line" smooth="yes"/>
      <point x="189" y="190"/>
      <point x="312" y="-33"/>
      <point x="750" y="-33" type="curve" smooth="yes"/>
      <point x="1159" y="-33"/>
      <point x="1315" y="281"/>
      <point x="1336" y="637" type="curve" smooth="yes"/>
      <point x="1364" y="1114" type="line"/>
      <point x="1372" y="1260"/>
      <point x="1364" y="1360"/>
      <point x="1520" y="1366" type="curve"/>
      <point x="1522" y="1434" type="line"/>
    </contour>
    <contour>
      <point x="984" y="10" type="move" name="ogonek"/>
    </contour>
    <contour>
      <point x="835" y="1438" type="move" name="top"/>
    </contour>
  </outline>
</glyph>
<glyph name="Z" format="1">
  <advance width="1253"/>
  <unicode hex="005A"/>
  <outline>
    <contour>
      <point x="170" y="1434" type="line"/>
      <point x="135" y="1010" type="line"/>
      <point x="205" y="1010" type="line"/>
      <point x="217" y="1243"/>
      <point x="303" y="1343"/>
      <point x="465" y="1350" type="curve" smooth="yes"/>
      <point x="993" y="1358" type="line"/>
      <point x="938" y="1298"/>
      <point x="895" y="1235"/>
      <point x="852" y="1174" type="curve" smooth="yes"/>
      <point x="485" y="635"/>
      <point x="227" y="309"/>
      <point x="64" y="94" type="curve"/>
      <point x="57" y="0" type="line"/>
      <point x="1108" y="0" type="line"/>
      <point x="1143" y="420" type="line"/>
      <point x="1073" y="420" type="line"/>
      <point x="1061" y="190"/>
      <point x="918" y="86"/>
      <point x="737" y="84" type="curve" smooth="yes"/>
      <point x="231" y="76" type="line"/>
      <point x="277" y="115"/>
      <point x="315" y="158"/>
      <point x="379" y="246" type="curve" smooth="yes"/>
      <point x="1182" y="1362" type="line"/>
      <point x="1186" y="1434" type="line"/>
    </contour>
    <contour>
      <point x="710" y="1438" type="move" name="top"/>
    </contour>
  </outline>
</glyph>
<glyph name="asciicircum" format="1">
  <advance width="1686"/>
  <unicode hex="005E"/>
  <outline>
    <contour>
      <point x="772" y="1454" type="line"/>
      <point x="111" y="891" type="line"/>
      <point x="274" y="891" type="line"/>
      <point x="847" y="1384" type="line"/>
      <point x="849" y="1384" type="line"/>
      <point x="1366" y="883" type="line"/>
      <point x="1542" y="883" type="line"/>
      <point x="946" y="1454" type="line"/>
    </contour>
  </outline>
</glyph>
<glyph name="b" format="1">
  <advance width="1047"/>
  <unicode hex="0062"/>
  <outline>
    <contour>
      <point x="340" y="1546" type="line"/>
      <point x="308" y="1518"/>
      <point x="260" y="1491"/>
      <point x="80" y="1491" type="curve"/>
      <point x="72" y="1409" type="line"/>
      <point x="219" y="1417" type="line"/>
      <point x="213" y="1380"/>
      <point x="213" y="1378"/>
      <point x="207" y="1309" type="curve" smooth="yes"/>
      <point x="166" y="834"/>
      <point x="154" y="553"/>
      <point x="117" y="20" type="curve"/>
      <point x="201" y="-12"/>
      <point x="318" y="-23"/>
      <point x="385" y="-23" type="curve" smooth="yes"/>
      <point x="791" y="-23"/>
      <point x="953" y="293"/>
      <point x="953" y="670" type="curve" smooth="yes"/>
      <point x="953" y="868"/>
      <point x="885" y="1047"/>
      <point x="697" y="1047" type="curve" smooth="yes"/>
      <point x="574" y="1047"/>
      <point x="410" y="1006"/>
      <point x="301" y="610" type="curve"/>
      <point x="295" y="610" type="line"/>
      <point x="316" y="827"/>
      <point x="336" y="1020"/>
      <point x="355" y="1200" type="curve" smooth="yes"/>
      <point x="365" y="1292"/>
      <point x="381" y="1432"/>
      <point x="400" y="1546" type="curve"/>
    </contour>
    <contour>
      <point x="734" y="955"/>
      <point x="772" y="840"/>
      <point x="777" y="653" type="curve" smooth="yes"/>
      <point x="781" y="404"/>
      <point x="719" y="53"/>
      <point x="420" y="49" type="curve" smooth="yes"/>
      <point x="367" y="49"/>
      <point x="301" y="63"/>
      <point x="269" y="96" type="curve"/>
      <point x="277" y="438"/>
      <point x="443" y="942"/>
      <point x="637" y="951" type="curve" smooth="yes"/>
    </contour>
  </outline>
</glyph>
<glyph name="j" format="1">
  <advance width="608"/>
  <unicode hex="006A"/>
  <outline>
    <contour>
      <point x="124" y="1047"/>
      <point x="53" y="846"/>
      <point x="39" y="750" type="curve"/>
      <point x="96" y="738" type="line"/>
      <point x="133" y="883"/>
      <point x="192" y="938"/>
      <point x="233" y="940" type="curve" smooth="yes"/>
      <point x="280" y="942"/>
      <point x="295" y="893"/>
      <point x="297" y="854" type="curve" smooth="yes"/>
      <point x="303" y="733"/>
      <point x="296" y="561"/>
      <point x="284" y="410" type="curve" smooth="yes"/>
      <point x="278" y="330"/>
      <point x="235" y="-471"/>
      <point x="2" y="-471" type="curve" smooth="yes"/>
      <point x="-12" y="-471"/>
      <point x="-28" y="-466"/>
      <point x="-38" y="-460" type="curve"/>
      <point x="-30" y="-390"/>
      <point x="-70" y="-349"/>
      <point x="-125" y="-349" type="curve" smooth="yes"/>
      <point x="-184" y="-349"/>
      <point x="-213" y="-398"/>
      <point x="-213" y="-444" type="curve" smooth="yes"/>
      <point x="-213" y="-527"/>
      <point x="-127" y="-555"/>
      <point x="-58" y="-555" type="curve" smooth="yes"/>
      <point x="341" y="-555"/>
      <point x="402" y="-24"/>
      <point x="444" y="393" type="curve" smooth="yes"/>
      <point x="461" y="561"/>
      <point x="465" y="725"/>
      <point x="465" y="838" type="curve" smooth="yes"/>
      <point x="465" y="976"/>
      <point x="403" y="1047"/>
      <point x="295" y="1047" type="curve" smooth="yes"/>
    </contour>
    <contour>
      <point x="323" y="1491"/>
      <point x="274" y="1442"/>
      <point x="274" y="1372" type="curve" smooth="yes"/>
      <point x="274" y="1303"/>
      <point x="323" y="1260"/>
      <point x="383" y="1260" type="curve" smooth="yes"/>
      <point x="442" y="1260"/>
      <point x="493" y="1305"/>
      <point x="493" y="1374" type="curve" smooth="yes"/>
      <point x="493" y="1444"/>
      <point x="446" y="1491"/>
      <point x="383" y="1491" type="curve" smooth="yes"/>
    </contour>
  </outline>
</glyph>
<glyph name="l" format="1">
  <advance width="580"/>
  <unicode hex="006C"/>
  <outline>
    <contour>
      <point x="380" y="1546" type="line"/>
      <point x="347" y="1518"/>
      <point x="300" y="1491"/>
      <point x="120" y="1491" type="curve"/>
      <point x="111" y="1409" type="line"/>
      <point x="257" y="1417" type="line"/>
      <point x="251" y="1389"/>
      <point x="249" y="1380"/>
      <point x="238" y="1307" type="curve" smooth="yes"/>
      <point x="189" y="946"/>
      <point x="122" y="316"/>
      <point x="126" y="144" type="curve" smooth="yes"/>
      <point x="128" y="34"/>
      <point x="179" y="-23"/>
      <point x="290" y="-23" type="curve" smooth="yes"/>
      <point x="454" y="-23"/>
      <point x="537" y="169"/>
      <point x="556" y="265" type="curve"/>
      <point x="497" y="278" type="line"/>
      <point x="456" y="132"/>
      <point x="394" y="79"/>
      <point x="349" y="79" type="curve" smooth="yes"/>
      <point x="296" y="79"/>
      <point x="292" y="134"/>
      <point x="292" y="187" type="curve" smooth="yes"/>
      <point x="292" y="384"/>
      <point x="347" y="909"/>
      <point x="384" y="1198" type="curve" smooth="yes"/>
      <point x="396" y="1290"/>
      <point x="423" y="1444"/>
      <point x="439" y="1546" type="curve"/>
    </contour>
    <contour>
      <point x="317" y="1443" type="move" name="top"/>
    </contour>
    <contour>
      <point x="335" y="0" type="move" name="bottom"/>
    </contour>
    <contour>
      <point x="534" y="1048" type="move" name="topright"/>
    </contour>
  </outline>
</glyph>
<glyph name="n" format="1">
  <advance width="1260"/>
  <unicode hex="006E"/>
  <outline>
    <contour>
      <point x="678" y="1047"/>
      <point x="547" y="953"/>
      <point x="407" y="580" type="curve"/>
      <point x="401" y="580" type="line"/>
      <point x="428" y="729"/>
      <point x="497" y="1047"/>
      <point x="280" y="1047" type="curve" smooth="yes"/>
      <point x="117" y="1047"/>
      <point x="33" y="854"/>
      <point x="14" y="758" type="curve"/>
      <point x="71" y="746" type="line"/>
      <point x="112" y="891"/>
      <point x="176" y="944"/>
      <point x="221" y="944" type="curve" smooth="yes"/>
      <point x="268" y="944"/>
      <point x="276" y="901"/>
      <point x="276" y="852" type="curve" smooth="yes"/>
      <point x="276" y="791"/>
      <point x="274" y="783"/>
      <point x="237" y="463" type="curve" smooth="yes"/>
      <point x="207" y="205"/>
      <point x="196" y="123"/>
      <point x="196" y="53" type="curve" smooth="yes"/>
      <point x="196" y="31"/>
      <point x="196" y="18"/>
      <point x="198" y="0" type="curve"/>
      <point x="370" y="0" type="line"/>
      <point x="368" y="35"/>
      <point x="366" y="68"/>
      <point x="366" y="109" type="curve" smooth="yes"/>
      <point x="366" y="455"/>
      <point x="581" y="951"/>
      <point x="770" y="951" type="curve" smooth="yes"/>
      <point x="850" y="951"/>
      <point x="866" y="873"/>
      <point x="866" y="826" type="curve" smooth="yes"/>
      <point x="866" y="607"/>
      <point x="803" y="327"/>
      <point x="803" y="175" type="curve" smooth="yes"/>
      <point x="803" y="48"/>
      <point x="839" y="-23"/>
      <point x="969" y="-23" type="curve" smooth="yes"/>
      <point x="1132" y="-23"/>
      <point x="1216" y="169"/>
      <point x="1235" y="265" type="curve"/>
      <point x="1177" y="278" type="line"/>
      <point x="1136" y="132"/>
      <point x="1073" y="79"/>
      <point x="1028" y="79" type="curve" smooth="yes"/>
      <point x="979" y="79"/>
      <point x="973" y="124"/>
      <point x="973" y="175" type="curve" smooth="yes"/>
      <point x="973" y="292"/>
      <point x="1034" y="554"/>
      <point x="1034" y="781" type="curve" smooth="yes"/>
      <point x="1034" y="923"/>
      <point x="975" y="1047"/>
      <point x="811" y="1047" type="curve" smooth="yes"/>
    </contour>
    <contour>
      <point x="695" y="1048" type="move" name="top"/>
    </contour>
    <contour>
      <point x="642" y="0" type="move" name="bottom"/>
    </contour>
  </outline>
</glyph>
<glyph name="o" format="1">
  <advance width="1067"/>
  <unicode hex="006F"/>
  <outline>
    <contour>
      <point x="271" y="1047"/>
      <point x="80" y="768"/>
      <point x="80" y="436" type="curve" smooth="yes"/>
      <point x="80" y="182"/>
      <point x="203" y="-23"/>
      <point x="473" y="-23" type="curve" smooth="yes"/>
      <point x="791" y="-23"/>
      <point x="975" y="268"/>
      <point x="975" y="598" type="curve" smooth="yes"/>
      <point x="975" y="885"/>
      <point x="807" y="1047"/>
      <point x="586" y="1047" type="curve" smooth="yes"/>
    </contour>
    <contour>
      <point x="756" y="967"/>
      <point x="799" y="727"/>
      <point x="795" y="535" type="curve" smooth="yes"/>
      <point x="791" y="336"/>
      <point x="709" y="51"/>
      <point x="492" y="55" type="curve" smooth="yes"/>
      <point x="303" y="59"/>
      <point x="256" y="315"/>
      <point x="260" y="504" type="curve" smooth="yes"/>
      <point x="264" y="766"/>
      <point x="373" y="973"/>
      <point x="555" y="971" type="curve" smooth="yes"/>
    </contour>
    <contour>
      <point x="601" y="1048" type="move" name="top"/>
    </contour>
  </outline>
</glyph>
<glyph name="w" format="1">
  <advance width="1640"/>
  <unicode hex="0077"/>
  <outline>
    <contour>
      <point x="1219" y="1047"/>
      <point x="1188" y="991"/>
      <point x="1188" y="946" type="curve" smooth="yes"/>
      <point x="1188" y="885"/>
      <point x="1236" y="858"/>
      <point x="1273" y="858" type="curve" smooth="yes"/>
      <point x="1308" y="858"/>
      <point x="1341" y="873"/>
      <point x="1357" y="909" type="curve"/>
      <point x="1494" y="852"/>
      <point x="1460" y="567"/>
      <point x="1425" y="459" type="curve" smooth="yes"/>
      <point x="1355" y="244"/>
      <point x="1193" y="82"/>
      <point x="1038" y="84" type="curve"/>
      <point x="946" y="86"/>
      <point x="927" y="164"/>
      <point x="927" y="243" type="curve" smooth="yes"/>
      <point x="927" y="430"/>
      <point x="995" y="657"/>
      <point x="995" y="932" type="curve" smooth="yes"/>
      <point x="995" y="952"/>
      <point x="993" y="1001"/>
      <point x="987" y="1024" type="curve"/>
      <point x="812" y="1024" type="line"/>
      <point x="884" y="436"/>
      <point x="671" y="86"/>
      <point x="468" y="86" type="curve" smooth="yes"/>
      <point x="399" y="86"/>
      <point x="380" y="149"/>
      <point x="380" y="209" type="curve" smooth="yes"/>
      <point x="380" y="325"/>
      <point x="436" y="670"/>
      <point x="436" y="848" type="curve" smooth="yes"/>
      <point x="436" y="975"/>
      <point x="378" y="1047"/>
      <point x="270" y="1047" type="curve" smooth="yes"/>
      <point x="106" y="1047"/>
      <point x="28" y="854"/>
      <point x="10" y="758" type="curve"/>
      <point x="67" y="746" type="line"/>
      <point x="108" y="891"/>
      <point x="165" y="944"/>
      <point x="210" y="944" type="curve" smooth="yes"/>
      <point x="260" y="944"/>
      <point x="266" y="899"/>
      <point x="266" y="848" type="curve" smooth="yes"/>
      <point x="266" y="731"/>
      <point x="212" y="461"/>
      <point x="212" y="244" type="curve" smooth="yes"/>
      <point x="212" y="98"/>
      <point x="266" y="-23"/>
      <point x="425" y="-23" type="curve" smooth="yes"/>
      <point x="575" y="-23"/>
      <point x="722" y="125"/>
      <point x="778" y="286" type="curve"/>
      <point x="782" y="286" type="line"/>
      <point x="759" y="39"/>
      <point x="882" y="-23"/>
      <point x="989" y="-23" type="curve" smooth="yes"/>
      <point x="1220" y="-23"/>
      <point x="1415" y="168"/>
      <point x="1505" y="412" type="curve" smooth="yes"/>
      <point x="1609" y="692"/>
      <point x="1554" y="1047"/>
      <point x="1311" y="1047" type="curve" smooth="yes"/>
    </contour>
    <contour>
      <point x="875" y="1048" type="move" name="top"/>
    </contour>
  </outline>
</glyph>
<glyph name="x" format="1">
  <advance width="1116"/>
  <unicode hex="0078"/>
  <outline>
    <contour>
      <point x="868" y="1047"/>
      <point x="728" y="1000"/>
      <point x="583" y="644" type="curve"/>
      <point x="581" y="644" type="line"/>
      <point x="490" y="904"/>
      <point x="466" y="1047"/>
      <point x="318" y="1047" type="curve" smooth="yes"/>
      <point x="133" y="1047"/>
      <point x="101" y="828"/>
      <point x="101" y="718" type="curve"/>
      <point x="160" y="720" type="line"/>
      <point x="168" y="881"/>
      <point x="215" y="922"/>
      <point x="264" y="922" type="curve" smooth="yes"/>
      <point x="337" y="922"/>
      <point x="364" y="798"/>
      <point x="471" y="516" type="curve"/>
      <point x="359" y="186"/>
      <point x="268" y="76"/>
      <point x="192" y="92" type="curve"/>
      <point x="190" y="125"/>
      <point x="179" y="176"/>
      <point x="114" y="176" type="curve" smooth="yes"/>
      <point x="69" y="176"/>
      <point x="31" y="139"/>
      <point x="31" y="81" type="curve" smooth="yes"/>
      <point x="31" y="20"/>
      <point x="79" y="-23"/>
      <point x="157" y="-23" type="curve" smooth="yes"/>
      <point x="258" y="-23"/>
      <point x="372" y="13"/>
      <point x="510" y="413" type="curve"/>
      <point x="512" y="413" type="line"/>
      <point x="657" y="44"/>
      <point x="699" y="-23"/>
      <point x="834" y="-23" type="curve" smooth="yes"/>
      <point x="971" y="-23"/>
      <point x="1020" y="118"/>
      <point x="1039" y="257" type="curve"/>
      <point x="981" y="264" type="line"/>
      <point x="961" y="155"/>
      <point x="926" y="102"/>
      <point x="877" y="102" type="curve" smooth="yes"/>
      <point x="809" y="102"/>
      <point x="742" y="227"/>
      <point x="633" y="506" type="curve" smooth="yes"/>
      <point x="619" y="542" type="line"/>
      <point x="736" y="831"/>
      <point x="820" y="912"/>
      <point x="877" y="920" type="curve"/>
      <point x="889" y="902"/>
      <point x="910" y="859"/>
      <point x="971" y="859" type="curve" smooth="yes"/>
      <point x="1018" y="859"/>
      <point x="1055" y="900"/>
      <point x="1055" y="947" type="curve" smooth="yes"/>
      <point x="1055" y="1004"/>
      <point x="1016" y="1047"/>
      <point x="944" y="1047" type="curve" smooth="yes"/>
    </contour>
  </outline>
</glyph>
<glyph name="braceleft" format="1">
  <advance width="680"/>
  <unicode hex="007B"/>
  <outline>
    <contour>
      <point x="682" y="1556"/>
      <point x="676" y="1556"/>
      <point x="653" y="1556" type="curve" smooth="yes"/>
      <point x="372" y="1556"/>
      <point x="280" y="1425"/>
      <point x="266" y="1136" type="curve" smooth="yes"/>
      <point x="260" y="1015"/>
      <point x="276" y="886"/>
      <point x="270" y="779" type="curve" smooth="yes"/>
      <point x="262" y="640"/>
      <point x="215" y="581"/>
      <point x="63" y="581" type="curve" smooth="yes"/>
      <point x="16" y="581" type="line"/>
      <point x="10" y="474" type="line"/>
      <point x="57" y="474" type="line" smooth="yes"/>
      <point x="209" y="474"/>
      <point x="250" y="407"/>
      <point x="243" y="267" type="curve" smooth="yes"/>
      <point x="237" y="161"/>
      <point x="211" y="24"/>
      <point x="204" y="-97" type="curve" smooth="yes"/>
      <point x="188" y="-385"/>
      <point x="264" y="-555"/>
      <point x="544" y="-555" type="curve" smooth="yes"/>
      <point x="567" y="-555"/>
      <point x="573" y="-555"/>
      <point x="602" y="-555" type="curve"/>
      <point x="606" y="-498" type="line"/>
      <point x="395" y="-504"/>
      <point x="340" y="-359"/>
      <point x="352" y="-125" type="curve" smooth="yes"/>
      <point x="356" y="-33"/>
      <point x="393" y="149"/>
      <point x="397" y="245" type="curve" smooth="yes"/>
      <point x="405" y="415"/>
      <point x="307" y="503"/>
      <point x="190" y="525" type="curve"/>
      <point x="190" y="525"/>
      <point x="190" y="529"/>
      <point x="190" y="529" type="curve"/>
      <point x="309" y="552"/>
      <point x="417" y="632"/>
      <point x="426" y="802" type="curve" smooth="yes"/>
      <point x="432" y="898"/>
      <point x="411" y="1073"/>
      <point x="417" y="1165" type="curve" smooth="yes"/>
      <point x="430" y="1398"/>
      <point x="495" y="1493"/>
      <point x="706" y="1486" type="curve"/>
      <point x="710" y="1556" type="line"/>
    </contour>
  </outline>
</glyph>
<glyph name="cent" format="1">
  <advance width="987"/>
  <unicode hex="00A2"/>
  <outline>
    <contour>
      <point x="559" y="1274" type="line"/>
      <point x="541" y="1047" type="line"/>
      <point x="224" y="1024"/>
      <point x="84" y="685"/>
      <point x="84" y="426" type="curve" smooth="yes"/>
      <point x="84" y="145"/>
      <point x="213" y="0"/>
      <point x="420" y="-23" type="curve"/>
      <point x="399" y="-264" type="line"/>
      <point x="506" y="-264" type="line"/>
      <point x="529" y="-23" type="line"/>
      <point x="671" y="-5"/>
      <point x="806" y="98"/>
      <point x="899" y="311" type="curve"/>
      <point x="827" y="345" type="line"/>
      <point x="748" y="150"/>
      <point x="621" y="74"/>
      <point x="514" y="74" type="curve" smooth="yes"/>
      <point x="369" y="74"/>
      <point x="264" y="186"/>
      <point x="264" y="473" type="curve" smooth="yes"/>
      <point x="264" y="690"/>
      <point x="334" y="976"/>
      <point x="571" y="976" type="curve" smooth="yes"/>
      <point x="651" y="976"/>
      <point x="719" y="942"/>
      <point x="733" y="866" type="curve"/>
      <point x="711" y="842"/>
      <point x="707" y="813"/>
      <point x="707" y="789" type="curve" smooth="yes"/>
      <point x="707" y="757"/>
      <point x="730" y="704"/>
      <point x="794" y="706" type="curve" smooth="yes"/>
      <point x="848" y="707"/>
      <point x="881" y="748"/>
      <point x="881" y="807" type="curve" smooth="yes"/>
      <point x="881" y="919"/>
      <point x="790" y="1012"/>
      <point x="658" y="1039" type="curve"/>
      <point x="680" y="1274" type="line"/>
    </contour>
  </outline>
</glyph>
<glyph name="currency" format="1">
  <advance width="1137"/>
  <unicode hex="00A4"/>
  <outline>
    <contour>
      <point x="809" y="837" type="line"/>
      <point x="752" y="887"/>
      <point x="676" y="918"/>
      <point x="583" y="918" type="curve" smooth="yes"/>
      <point x="489" y="918"/>
      <point x="410" y="887"/>
      <point x="348" y="837" type="curve"/>
      <point x="245" y="976" type="line"/>
      <point x="162" y="910" type="line"/>
      <point x="279" y="768" type="line"/>
      <point x="223" y="696"/>
      <point x="191" y="607"/>
      <point x="187" y="521" type="curve" smooth="yes"/>
      <point x="182" y="435"/>
      <point x="202" y="352"/>
      <point x="246" y="285" type="curve"/>
      <point x="119" y="148" type="line"/>
      <point x="195" y="82" type="line"/>
      <point x="308" y="215" type="line"/>
      <point x="366" y="167"/>
      <point x="443" y="138"/>
      <point x="541" y="138" type="curve" smooth="yes"/>
      <point x="639" y="138"/>
      <point x="720" y="168"/>
      <point x="783" y="216" type="curve"/>
      <point x="884" y="82" type="line"/>
      <point x="967" y="148" type="line"/>
      <point x="852" y="286" type="line"/>
      <point x="903" y="353"/>
      <point x="932" y="436"/>
      <point x="937" y="521" type="curve"/>
      <point x="941" y="607"/>
      <point x="918" y="695"/>
      <point x="870" y="767" type="curve"/>
      <point x="1003" y="910" type="line"/>
      <point x="927" y="976" type="line"/>
    </contour>
    <contour>
      <point x="733" y="845"/>
      <point x="775" y="658"/>
      <point x="770" y="554" type="curve" smooth="yes"/>
      <point x="763" y="423"/>
      <point x="708" y="218"/>
      <point x="546" y="218" type="curve" smooth="yes"/>
      <point x="384" y="218"/>
      <point x="351" y="423"/>
      <point x="358" y="554" type="curve" smooth="yes"/>
      <point x="363" y="658"/>
      <point x="425" y="845"/>
      <point x="579" y="845" type="curve" smooth="yes"/>
    </contour>
  </outline>
</glyph>
<glyph name="logicalnot" format="1">
  <advance width="1198"/>
  <unicode hex="00AC"/>
  <outline>
    <contour>
      <point x="139" y="584" type="line"/>
      <point x="945" y="587" type="line"/>
      <point x="940" y="322" type="line"/>
      <point x="1038" y="322" type="line"/>
      <point x="1056" y="700" type="line"/>
      <point x="145" y="705" type="line"/>
    </contour>
  </outline>
</glyph>
<glyph name="twosuperior" format="1">
  <advance width="766"/>
  <unicode hex="00B2"/>
  <outline>
    <contour>
      <point x="264" y="1467"/>
      <point x="166" y="1345"/>
      <point x="166" y="1259" type="curve" smooth="yes"/>
      <point x="166" y="1222"/>
      <point x="192" y="1197"/>
      <point x="224" y="1197" type="curve" smooth="yes"/>
      <point x="258" y="1197"/>
      <point x="283" y="1224"/>
      <point x="283" y="1253" type="curve" smooth="yes"/>
      <point x="283" y="1269"/>
      <point x="280" y="1288"/>
      <point x="264" y="1305" type="curve"/>
      <point x="275" y="1350"/>
      <point x="330" y="1397"/>
      <point x="400" y="1397" type="curve" smooth="yes"/>
      <point x="488" y="1397"/>
      <point x="531" y="1334"/>
      <point x="527" y="1246" type="curve" smooth="yes"/>
      <point x="522" y="1188"/>
      <point x="498" y="1102"/>
      <point x="379" y="1008" type="curve" smooth="yes"/>
      <point x="246" y="904"/>
      <point x="127" y="797"/>
      <point x="119" y="627" type="curve"/>
      <point x="643" y="627" type="line"/>
      <point x="662" y="816" type="line"/>
      <point x="613" y="816" type="line"/>
      <point x="606" y="721"/>
      <point x="524" y="730"/>
      <point x="410" y="734" type="curve" smooth="yes"/>
      <point x="228" y="738" type="line"/>
      <point x="248" y="799"/>
      <point x="309" y="859"/>
      <point x="408" y="928" type="curve" smooth="yes"/>
      <point x="625" y="1080"/>
      <point x="662" y="1168"/>
      <point x="666" y="1248" type="curve" smooth="yes"/>
      <point x="674" y="1399"/>
      <point x="557" y="1467"/>
      <point x="430" y="1467" type="curve" smooth="yes"/>
    </contour>
  </outline>
</glyph>
<glyph name="paragraph" format="1">
  <advance width="1004"/>
  <unicode hex="00B6"/>
  <outline>
    <contour>
      <point x="407" y="1434" type="line" smooth="yes"/>
      <point x="262" y="1434"/>
      <point x="113" y="1331"/>
      <point x="102" y="1135" type="curve" smooth="yes"/>
      <point x="90" y="925"/>
      <point x="240" y="846"/>
      <point x="374" y="836" type="curve"/>
      <point x="300" y="-522" type="line"/>
      <point x="436" y="-522" type="line"/>
      <point x="537" y="1345" type="line"/>
      <point x="715" y="1350" type="line"/>
      <point x="616" y="-522" type="line"/>
      <point x="751" y="-522" type="line"/>
      <point x="855" y="1434" type="line"/>
    </contour>
  </outline>
</glyph>
<glyph name="AE" format="1">
  <advance width="1956"/>
  <unicode hex="00C6"/>
  <outline>
    <contour>
      <point x="809" y="1434" type="line"/>
      <point x="805" y="1343" type="line"/>
      <point x="989" y="1352" type="line"/>
      <point x="989" y="1351"/>
      <point x="988" y="1350"/>
      <point x="988" y="1350" type="curve"/>
      <point x="192" y="256" type="line" smooth="yes"/>
      <point x="133" y="174"/>
      <point x="61" y="68"/>
      <point x="-45" y="68" type="curve"/>
      <point x="-49" y="0" type="line"/>
      <point x="332" y="0" type="line"/>
      <point x="336" y="90" type="line"/>
      <point x="178" y="81" type="line"/>
      <point x="178" y="83" type="line"/>
      <point x="438" y="442" type="line"/>
      <point x="938" y="453" type="line"/>
      <point x="928" y="266" type="line" smooth="yes"/>
      <point x="922" y="141"/>
      <point x="899" y="76"/>
      <point x="776" y="74" type="curve"/>
      <point x="772" y="0" type="line"/>
      <point x="1821" y="0" type="line"/>
      <point x="1853" y="399" type="line"/>
      <point x="1784" y="399" type="line"/>
      <point x="1771" y="158"/>
      <point x="1655" y="73"/>
      <point x="1477" y="76" type="curve" smooth="yes"/>
      <point x="1081" y="82" type="line"/>
      <point x="1087" y="117"/>
      <point x="1092" y="168"/>
      <point x="1096" y="242" type="curve" smooth="yes"/>
      <point x="1121" y="706" type="line"/>
      <point x="1169" y="708"/>
      <point x="1220" y="710"/>
      <point x="1271" y="710" type="curve" smooth="yes"/>
      <point x="1444" y="710"/>
      <point x="1513" y="711"/>
      <point x="1505" y="530" type="curve"/>
      <point x="1573" y="530" type="line"/>
      <point x="1595" y="977" type="line"/>
      <point x="1528" y="977" type="line"/>
      <point x="1520" y="797"/>
      <point x="1448" y="784"/>
      <point x="1276" y="784" type="curve" smooth="yes"/>
      <point x="1125" y="784" type="line"/>
      <point x="1143" y="1114" type="line" smooth="yes"/>
      <point x="1152" y="1280"/>
      <point x="1157" y="1354"/>
      <point x="1311" y="1358" type="curve" smooth="yes"/>
      <point x="1487" y="1362" type="line" smooth="yes"/>
      <point x="1640" y="1366"/>
      <point x="1761" y="1317"/>
      <point x="1749" y="1075" type="curve"/>
      <point x="1817" y="1075" type="line"/>
      <point x="1825" y="1434" type="line"/>
    </contour>
    <contour>
      <point x="942" y="530" type="line"/>
      <point x="501" y="530" type="line"/>
      <point x="973" y="1192" type="line"/>
      <point x="975" y="1192" type="line"/>
    </contour>
  </outline>
</glyph>
<glyph name="Ccedilla" format="1">
  <advance width="1411"/>
  <unicode hex="00C7"/>
  <outline>
    <contour>
      <point x="368" y="1467"/>
      <point x="125" y="1079"/>
      <point x="104" y="694" type="curve"/>
      <point x="86" y="337"/>
      <point x="281" y="47"/>
      <point x="606" y="-19" type="curve"/>
      <point x="547" y="-209" type="line"/>
      <point x="613" y="-244" type="line"/>
      <point x="637" y="-225"/>
      <point x="664" y="-217"/>
      <point x="692" y="-213" type="curve" smooth="yes"/>
      <point x="748" y="-206"/>
      <point x="783" y="-231"/>
      <point x="780" y="-281" type="curve" smooth="yes"/>
      <point x="776" y="-360"/>
      <point x="649" y="-422"/>
      <point x="510" y="-446" type="curve"/>
      <point x="522" y="-514" type="line"/>
      <point x="662" y="-494"/>
      <point x="936" y="-428"/>
      <point x="948" y="-262" type="curve"/>
      <point x="955" y="-184"/>
      <point x="914" y="-117"/>
      <point x="809" y="-117" type="curve" smooth="yes"/>
      <point x="776" y="-117"/>
      <point x="711" y="-129"/>
      <point x="670" y="-154" type="curve"/>
      <point x="716" y="-32" type="line"/>
      <point x="728" y="-32"/>
      <point x="739" y="-33"/>
      <point x="751" y="-33" type="curve" smooth="yes"/>
      <point x="917" y="-33"/>
      <point x="1157" y="23"/>
      <point x="1345" y="260" type="curve"/>
      <point x="1294" y="303" type="line"/>
      <point x="1175" y="152"/>
      <point x="987" y="74"/>
      <point x="811" y="74" type="curve" smooth="yes"/>
      <point x="508" y="74"/>
      <point x="276" y="338"/>
      <point x="297" y="725" type="curve"/>
      <point x="317" y="1126"/>
      <point x="563" y="1383"/>
      <point x="854" y="1383" type="curve" smooth="yes"/>
      <point x="1091" y="1383"/>
      <point x="1245" y="1236"/>
      <point x="1259" y="980" type="curve"/>
      <point x="1333" y="980" type="line"/>
      <point x="1358" y="1455" type="line"/>
      <point x="1247" y="1455" type="line"/>
      <point x="1252" y="1344" type="line"/>
      <point x="1130" y="1428"/>
      <point x="1001" y="1467"/>
      <point x="846" y="1467" type="curve" smooth="yes"/>
    </contour>
  </outline>
</glyph>
<glyph name="ae" format="1">
  <advance width="1530"/>
  <unicode hex="00E6"/>
  <outline>
    <contour>
      <point x="982" y="1047"/>
      <point x="864" y="982"/>
      <point x="784" y="861" type="curve"/>
      <point x="780" y="861" type="line"/>
      <point x="737" y="974"/>
      <point x="657" y="1047"/>
      <point x="522" y="1047" type="curve" smooth="yes"/>
      <point x="286" y="1047"/>
      <point x="130" y="908"/>
      <point x="125" y="789" type="curve" smooth="yes"/>
      <point x="123" y="738"/>
      <point x="157" y="702"/>
      <point x="205" y="701" type="curve" smooth="yes"/>
      <point x="254" y="700"/>
      <point x="288" y="740"/>
      <point x="288" y="781" type="curve" smooth="yes"/>
      <point x="288" y="800"/>
      <point x="286" y="823"/>
      <point x="270" y="844" type="curve"/>
      <point x="292" y="921"/>
      <point x="376" y="977"/>
      <point x="481" y="977" type="curve" smooth="yes"/>
      <point x="659" y="977"/>
      <point x="675" y="817"/>
      <point x="663" y="647" type="curve" smooth="yes"/>
      <point x="657" y="565"/>
      <point x="657" y="543"/>
      <point x="657" y="541" type="curve"/>
      <point x="378" y="552"/>
      <point x="53" y="438"/>
      <point x="53" y="199" type="curve" smooth="yes"/>
      <point x="53" y="66"/>
      <point x="139" y="-23"/>
      <point x="315" y="-23" type="curve" smooth="yes"/>
      <point x="444" y="-23"/>
      <point x="579" y="37"/>
      <point x="696" y="166" type="curve"/>
      <point x="770" y="31"/>
      <point x="866" y="-23"/>
      <point x="1028" y="-23" type="curve" smooth="yes"/>
      <point x="1167" y="-23"/>
      <point x="1330" y="48"/>
      <point x="1454" y="289" type="curve"/>
      <point x="1388" y="327" type="line"/>
      <point x="1309" y="188"/>
      <point x="1194" y="80"/>
      <point x="1067" y="80" type="curve" smooth="yes"/>
      <point x="878" y="80"/>
      <point x="811" y="239"/>
      <point x="810" y="472" type="curve"/>
      <point x="1296" y="524"/>
      <point x="1407" y="705"/>
      <point x="1407" y="826" type="curve" smooth="yes"/>
      <point x="1407" y="876"/>
      <point x="1384" y="1047"/>
      <point x="1134" y="1047" type="curve" smooth="yes"/>
    </contour>
    <contour>
      <point x="647" y="398"/>
      <point x="653" y="309"/>
      <point x="669" y="233" type="curve"/>
      <point x="583" y="143"/>
      <point x="466" y="82"/>
      <point x="358" y="92" type="curve" smooth="yes"/>
      <point x="296" y="98"/>
      <point x="219" y="131"/>
      <point x="223" y="232" type="curve" smooth="yes"/>
      <point x="230" y="432"/>
      <point x="464" y="470"/>
      <point x="651" y="476" type="curve"/>
    </contour>
    <contour>
      <point x="1157" y="980"/>
      <point x="1243" y="954"/>
      <point x="1243" y="830" type="curve" smooth="yes"/>
      <point x="1243" y="654"/>
      <point x="1028" y="566"/>
      <point x="811" y="545" type="curve"/>
      <point x="835" y="793"/>
      <point x="938" y="975"/>
      <point x="1098" y="979" type="curve" smooth="yes"/>
    </contour>
  </outline>
</glyph>
<glyph name="oslash" format="1">
  <advance width="1067"/>
  <unicode hex="00F8"/>
  <outline>
    <contour>
      <point x="804" y="982" type="line"/>
      <point x="742" y="1024"/>
      <point x="668" y="1047"/>
      <point x="586" y="1047" type="curve" smooth="yes"/>
      <point x="271" y="1047"/>
      <point x="80" y="768"/>
      <point x="80" y="436" type="curve" smooth="yes"/>
      <point x="80" y="294"/>
      <point x="118" y="168"/>
      <point x="198" y="84" type="curve"/>
      <point x="70" y="-106" type="line"/>
      <point x="135" y="-158" type="line"/>
      <point x="265" y="30" type="line"/>
      <point x="321" y="-4"/>
      <point x="390" y="-23"/>
      <point x="473" y="-23" type="curve" smooth="yes"/>
      <point x="791" y="-23"/>
      <point x="975" y="268"/>
      <point x="975" y="598" type="curve" smooth="yes"/>
      <point x="975" y="731"/>
      <point x="939" y="837"/>
      <point x="878" y="913" type="curve"/>
      <point x="1002" y="1092" type="line"/>
      <point x="918" y="1151" type="line"/>
    </contour>
    <contour>
      <point x="791" y="689"/>
      <point x="796" y="608"/>
      <point x="795" y="535" type="curve" smooth="yes"/>
      <point x="791" y="336"/>
      <point x="709" y="51"/>
      <point x="492" y="55" type="curve" smooth="yes"/>
      <point x="425" y="56"/>
      <point x="376" y="89"/>
      <point x="341" y="139" type="curve"/>
      <point x="772" y="761" type="line"/>
    </contour>
    <contour>
      <point x="636" y="970"/>
      <point x="691" y="929"/>
      <point x="728" y="869" type="curve"/>
      <point x="296" y="229" type="line"/>
      <point x="267" y="314"/>
      <point x="258" y="416"/>
      <point x="260" y="504" type="curve" smooth="yes"/>
      <point x="264" y="766"/>
      <point x="373" y="974"/>
      <point x="555" y="971" type="curve" smooth="yes"/>
    </contour>
  </outline>
</glyph>
<glyph name="dotaccent" format="1">
  <advance width="406"/>
  <unicode hex="02D9"/>
  <outline>
    <component base="period" xOffset="15" yOffset="1278" xScale="0.92" yScale="0.92"/>
    <contour>
      <point x="187" y="1048" type="move" name="_top"/>
    </contour>
  </outline>
</glyph>
<glyph name="hungarumlaut" format="1">
  <advance width="858"/>
  <unicode hex="02DD"/>
  <outline>
    <contour>
      <point x="735" y="1559"/>
      <point x="680" y="1575"/>
      <point x="604" y="1495" type="curve" smooth="yes"/>
      <point x="379" y="1264" type="line"/>
      <point x="416" y="1217" type="line"/>
      <point x="692" y="1403" type="line" smooth="yes"/>
      <point x="770" y="1454"/>
      <point x="774" y="1497"/>
      <point x="754" y="1530" type="curve" smooth="yes"/>
    </contour>
    <contour>
      <point x="412" y="1556"/>
      <point x="354" y="1581"/>
      <point x="287" y="1493" type="curve" smooth="yes"/>
      <point x="92" y="1243" type="line"/>
      <point x="137" y="1198" type="line"/>
      <point x="379" y="1409" type="line" smooth="yes"/>
      <point x="463" y="1481"/>
      <point x="440" y="1522"/>
      <point x="424" y="1542" type="curve" smooth="yes"/>
    </contour>
    <contour>
      <point x="411" y="1048" type="move" name="_top"/>
    </contour>
  </outline>
</glyph>
<glyph name="Dje-cy" format="1">
  <advance width="1616"/>
  <unicode hex="0402"/>
  <outline>
    <contour>
      <point x="735" y="697" type="line"/>
      <point x="804" y="739"/>
      <point x="901" y="770"/>
      <point x="1050" y="770" type="curve" smooth="yes"/>
      <point x="1224" y="770"/>
      <point x="1327" y="669"/>
      <point x="1316" y="471" type="curve" smooth="yes"/>
      <point x="1303" y="218"/>
      <point x="1244" y="51"/>
      <point x="1162" y="51" type="curve" smooth="yes"/>
      <point x="1148" y="51"/>
      <point x="1132" y="56"/>
      <point x="1122" y="62" type="curve"/>
      <point x="1130" y="132"/>
      <point x="1090" y="173"/>
      <point x="1035" y="173" type="curve" smooth="yes"/>
      <point x="976" y="173"/>
      <point x="947" y="124"/>
      <point x="947" y="78" type="curve" smooth="yes"/>
      <point x="947" y="-5"/>
      <point x="1033" y="-33"/>
      <point x="1102" y="-33" type="curve" smooth="yes"/>
      <point x="1326" y="-33"/>
      <point x="1455" y="153"/>
      <point x="1483" y="468" type="curve" smooth="yes"/>
      <point x="1506" y="731"/>
      <point x="1379" y="874"/>
      <point x="1125" y="874" type="curve" smooth="yes"/>
      <point x="958" y="874"/>
      <point x="830" y="844"/>
      <point x="740" y="797" type="curve"/>
    </contour>
    <component base="T"/>
  </outline>
</glyph>
<glyph name="E-cy" format="1">
  <advance width="1405"/>
  <unicode hex="0404"/>
  <outline>
    <contour>
      <point x="1010" y="977" type="line"/>
      <point x="1002" y="797"/>
      <point x="926" y="782"/>
      <point x="754" y="784" type="curve" smooth="yes"/>
      <point x="257" y="786" type="line"/>
      <point x="253" y="705" type="line"/>
      <point x="752" y="711" type="line" smooth="yes"/>
      <point x="928" y="717"/>
      <point x="996" y="711"/>
      <point x="988" y="530" type="curve"/>
      <point x="1055" y="530" type="line"/>
      <point x="1078" y="977" type="line"/>
    </contour>
    <contour>
      <point x="366" y="1467"/>
      <point x="123" y="1079"/>
      <point x="102" y="694" type="curve" smooth="yes"/>
      <point x="82" y="287"/>
      <point x="338" y="-33"/>
      <point x="749" y="-33" type="curve" smooth="yes"/>
      <point x="915" y="-33"/>
      <point x="1155" y="23"/>
      <point x="1343" y="260" type="curve"/>
      <point x="1292" y="303" type="line"/>
      <point x="1173" y="152"/>
      <point x="985" y="74"/>
      <point x="809" y="74" type="curve" smooth="yes"/>
      <point x="506" y="74"/>
      <point x="272" y="338"/>
      <point x="293" y="725" type="curve" smooth="yes"/>
      <point x="313" y="1126"/>
      <point x="561" y="1383"/>
      <point x="852" y="1383" type="curve" smooth="yes"/>
      <point x="1089" y="1383"/>
      <point x="1243" y="1236"/>
      <point x="1257" y="980" type="curve"/>
      <point x="1331" y="980" type="line"/>
      <point x="1356" y="1455" type="line"/>
      <point x="1245" y="1455" type="line"/>
      <point x="1250" y="1344" type="line"/>
      <point x="1248" y="1344" type="line"/>
      <point x="1127" y="1426"/>
      <point x="998" y="1467"/>
      <point x="844" y="1467" type="curve" smooth="yes"/>
    </contour>
  </outline>
</glyph>
<glyph name="Ge-cy" format="1">
  <advance width="1108"/>
  <unicode hex="0413"/>
  <outline>
    <contour>
      <point x="454" y="1131" type="line"/>
      <point x="461" y="1274"/>
      <point x="468" y="1354"/>
      <point x="609" y="1358" type="curve" smooth="yes"/>
      <point x="758" y="1362" type="line" smooth="yes"/>
      <point x="912" y="1366"/>
      <point x="1039" y="1317"/>
      <point x="1027" y="1075" type="curve"/>
      <point x="1094" y="1075" type="line"/>
      <point x="1102" y="1434" type="line"/>
      <point x="160" y="1434" type="line"/>
      <point x="156" y="1343" type="line"/>
      <point x="306" y="1352" type="line"/>
      <point x="299" y="1311"/>
      <point x="293" y="1260"/>
      <point x="291" y="1204" type="curve" smooth="yes"/>
      <point x="242" y="319" type="line" smooth="yes"/>
      <point x="236" y="174"/>
      <point x="242" y="74"/>
      <point x="89" y="68" type="curve"/>
      <point x="84" y="0" type="line"/>
      <point x="598" y="0" type="line"/>
      <point x="603" y="90" type="line"/>
      <point x="394" y="82" type="line"/>
      <point x="400" y="117"/>
      <point x="406" y="170"/>
      <point x="408" y="244" type="curve"/>
    </contour>
  </outline>
</glyph>
<glyph name="Zhe-cy" format="1">
  <advance width="1923"/>
  <unicode hex="0416"/>
  <outline>
    <contour>
      <point x="1509" y="1434" type="line"/>
      <point x="1504" y="1350" type="line"/>
      <point x="1629" y="1354" type="line"/>
      <point x="1570" y="1309"/>
      <point x="1509" y="1237"/>
      <point x="1474" y="1182" type="curve" smooth="yes"/>
      <point x="1217" y="778" type="line"/>
      <point x="1064" y="778" type="line"/>
      <point x="1082" y="1114" type="line" smooth="yes"/>
      <point x="1089" y="1260"/>
      <point x="1082" y="1360"/>
      <point x="1236" y="1366" type="curve"/>
      <point x="1240" y="1434" type="line"/>
      <point x="779" y="1434" type="line"/>
      <point x="774" y="1343" type="line"/>
      <point x="922" y="1352" type="line"/>
      <point x="915" y="1311"/>
      <point x="910" y="1260"/>
      <point x="908" y="1204" type="curve" smooth="yes"/>
      <point x="861" y="319" type="line" smooth="yes"/>
      <point x="854" y="174"/>
      <point x="861" y="74"/>
      <point x="707" y="68" type="curve"/>
      <point x="703" y="0" type="line"/>
      <point x="1164" y="0" type="line"/>
      <point x="1169" y="90" type="line"/>
      <point x="1021" y="82" type="line"/>
      <point x="1028" y="117"/>
      <point x="1032" y="170"/>
      <point x="1036" y="244" type="curve" smooth="yes"/>
      <point x="1060" y="696" type="line"/>
      <point x="1182" y="698" type="line"/>
      <point x="1241" y="649"/>
      <point x="1270" y="595"/>
      <point x="1305" y="532" type="curve" smooth="yes"/>
      <point x="1493" y="201" type="line" smooth="yes"/>
      <point x="1567" y="71"/>
      <point x="1658" y="0"/>
      <point x="1699" y="0" type="curve" smooth="yes"/>
      <point x="1909" y="0" type="line"/>
      <point x="1913" y="68" type="line"/>
      <point x="1825" y="68"/>
      <point x="1756" y="106"/>
      <point x="1644" y="305" type="curve" smooth="yes"/>
      <point x="1481" y="596" type="line" smooth="yes"/>
      <point x="1434" y="678"/>
      <point x="1394" y="723"/>
      <point x="1320" y="770" type="curve"/>
      <point x="1523" y="1090" type="line" smooth="yes"/>
      <point x="1666" y="1318"/>
      <point x="1772" y="1352"/>
      <point x="1945" y="1366" type="curve"/>
      <point x="1949" y="1434" type="line"/>
    </contour>
    <contour>
      <point x="71" y="1434" type="line"/>
      <point x="67" y="1366" type="line"/>
      <point x="238" y="1352"/>
      <point x="340" y="1318"/>
      <point x="461" y="1090" type="curve" smooth="yes"/>
      <point x="630" y="770" type="line"/>
      <point x="550" y="723"/>
      <point x="505" y="678"/>
      <point x="451" y="596" type="curve" smooth="yes"/>
      <point x="257" y="305" type="line" smooth="yes"/>
      <point x="125" y="106"/>
      <point x="51" y="68"/>
      <point x="-37" y="68" type="curve"/>
      <point x="-41" y="0" type="line"/>
      <point x="179" y="0" type="line" smooth="yes"/>
      <point x="220" y="0"/>
      <point x="315" y="70"/>
      <point x="401" y="201" type="curve" smooth="yes"/>
      <point x="619" y="532" type="line" smooth="yes"/>
      <point x="661" y="595"/>
      <point x="695" y="649"/>
      <point x="760" y="698" type="curve"/>
      <point x="882" y="696" type="line"/>
      <point x="886" y="778" type="line"/>
      <point x="733" y="778" type="line"/>
      <point x="518" y="1182" type="line" smooth="yes"/>
      <point x="489" y="1237"/>
      <point x="436" y="1309"/>
      <point x="381" y="1354" type="curve"/>
      <point x="506" y="1350" type="line"/>
      <point x="511" y="1434" type="line"/>
    </contour>
  </outline>
</glyph>
<glyph name="Hardsign-cy" format="1">
  <advance width="1487"/>
  <unicode hex="042A"/>
  <outline>
    <contour>
      <point x="701" y="784" type="line"/>
      <point x="719" y="1134" type="line" smooth="yes"/>
      <point x="725" y="1280"/>
      <point x="727" y="1360"/>
      <point x="871" y="1366" type="curve"/>
      <point x="875" y="1434" type="line"/>
      <point x="109" y="1434" type="line"/>
      <point x="74" y="1001" type="line"/>
      <point x="150" y="1001" type="line"/>
      <point x="162" y="1243"/>
      <point x="232" y="1356"/>
      <point x="404" y="1356" type="curve" smooth="yes"/>
      <point x="570" y="1356" type="line"/>
      <point x="560" y="1315"/>
      <point x="554" y="1262"/>
      <point x="551" y="1204" type="curve" smooth="yes"/>
      <point x="506" y="330" type="line" smooth="yes"/>
      <point x="498" y="176"/>
      <point x="504" y="72"/>
      <point x="351" y="68" type="curve"/>
      <point x="346" y="0" type="line"/>
      <point x="938" y="0" type="line" smooth="yes"/>
      <point x="1215" y="0"/>
      <point x="1436" y="140"/>
      <point x="1436" y="420" type="curve" smooth="yes"/>
      <point x="1436" y="657"/>
      <point x="1280" y="798"/>
      <point x="872" y="788" type="curve" smooth="yes"/>
    </contour>
    <contour>
      <point x="697" y="705" type="line"/>
      <point x="762" y="709"/>
      <point x="826" y="711"/>
      <point x="908" y="711" type="curve" smooth="yes"/>
      <point x="1094" y="711"/>
      <point x="1256" y="631"/>
      <point x="1244" y="399" type="curve" smooth="yes"/>
      <point x="1233" y="184"/>
      <point x="1086" y="80"/>
      <point x="875" y="80" type="curve" smooth="yes"/>
      <point x="848" y="80"/>
      <point x="721" y="78"/>
      <point x="658" y="84" type="curve"/>
      <point x="664" y="119"/>
      <point x="668" y="170"/>
      <point x="672" y="244" type="curve" smooth="yes"/>
    </contour>
  </outline>
</glyph>
<glyph name="ze-cy" format="1">
  <advance width="897"/>
  <unicode hex="0437"/>
  <outline>
    <contour>
      <point x="354" y="480" type="line"/>
      <point x="563" y="541"/>
      <point x="658" y="443"/>
      <point x="658" y="290" type="curve" smooth="yes"/>
      <point x="658" y="147"/>
      <point x="565" y="48"/>
      <point x="386" y="48" type="curve" smooth="yes"/>
      <point x="289" y="48"/>
      <point x="221" y="82"/>
      <point x="207" y="158" type="curve"/>
      <point x="229" y="182"/>
      <point x="233" y="211"/>
      <point x="233" y="235" type="curve" smooth="yes"/>
      <point x="233" y="267"/>
      <point x="210" y="320"/>
      <point x="146" y="318" type="curve" smooth="yes"/>
      <point x="92" y="317"/>
      <point x="59" y="276"/>
      <point x="59" y="217" type="curve" smooth="yes"/>
      <point x="59" y="82"/>
      <point x="190" y="-23"/>
      <point x="380" y="-23" type="curve" smooth="yes"/>
      <point x="630" y="-23"/>
      <point x="811" y="136"/>
      <point x="811" y="325" type="curve" smooth="yes"/>
      <point x="811" y="456"/>
      <point x="721" y="558"/>
      <point x="545" y="568" type="curve"/>
      <point x="709" y="642"/>
      <point x="783" y="743"/>
      <point x="783" y="848" type="curve" smooth="yes"/>
      <point x="783" y="984"/>
      <point x="661" y="1047"/>
      <point x="496" y="1047" type="curve" smooth="yes"/>
      <point x="306" y="1048"/>
      <point x="127" y="943"/>
      <point x="137" y="799" type="curve" smooth="yes"/>
      <point x="137" y="742"/>
      <point x="177" y="706"/>
      <point x="225" y="706" type="curve" smooth="yes"/>
      <point x="274" y="706"/>
      <point x="310" y="741"/>
      <point x="310" y="787" type="curve" smooth="yes"/>
      <point x="310" y="832"/>
      <point x="294" y="863"/>
      <point x="240" y="870" type="curve"/>
      <point x="277" y="932"/>
      <point x="351" y="976"/>
      <point x="453" y="976" type="curve" smooth="yes"/>
      <point x="567" y="976"/>
      <point x="620" y="925"/>
      <point x="620" y="822" type="curve" smooth="yes"/>
      <point x="620" y="700"/>
      <point x="543" y="614"/>
      <point x="331" y="550" type="curve"/>
    </contour>
  </outline>
</glyph>
<glyph name="ii-cy" format="1">
  <advance width="1214"/>
  <unicode hex="0438"/>
  <outline>
    <component base="u"/>
    <contour>
      <point x="640" y="1048" type="move" name="top"/>
    </contour>
  </outline>
</glyph>
<glyph name="tse-cy" format="1">
  <advance width="1259"/>
  <unicode hex="0446"/>
  <outline>
    <contour>
      <point x="854" y="569"/>
      <point x="655" y="74"/>
      <point x="467" y="74" type="curve" smooth="yes"/>
      <point x="387" y="74"/>
      <point x="371" y="156"/>
      <point x="371" y="203" type="curve" smooth="yes"/>
      <point x="371" y="375"/>
      <point x="438" y="692"/>
      <point x="438" y="848" type="curve" smooth="yes"/>
      <point x="438" y="975"/>
      <point x="381" y="1047"/>
      <point x="272" y="1047" type="curve" smooth="yes"/>
      <point x="108" y="1047"/>
      <point x="31" y="854"/>
      <point x="12" y="758" type="curve"/>
      <point x="69" y="746" type="line"/>
      <point x="110" y="891"/>
      <point x="168" y="944"/>
      <point x="213" y="944" type="curve" smooth="yes"/>
      <point x="262" y="944"/>
      <point x="268" y="899"/>
      <point x="268" y="848" type="curve" smooth="yes"/>
      <point x="268" y="731"/>
      <point x="203" y="471"/>
      <point x="203" y="244" type="curve" smooth="yes"/>
      <point x="203" y="102"/>
      <point x="263" y="-23"/>
      <point x="427" y="-23" type="curve" smooth="yes"/>
      <point x="560" y="-23"/>
      <point x="674" y="63"/>
      <point x="813" y="436" type="curve"/>
      <point x="819" y="436" type="line"/>
      <point x="799" y="334"/>
      <point x="782" y="239"/>
      <point x="782" y="162" type="curve" smooth="yes"/>
      <point x="782" y="51"/>
      <point x="829" y="-23"/>
      <point x="910" y="-23" type="curve" smooth="yes"/>
      <point x="978" y="-23"/>
      <point x="1013" y="-4"/>
      <point x="1043" y="42" type="curve"/>
      <point x="1080" y="57" type="line"/>
      <point x="1123" y="121"/>
      <point x="1144" y="207"/>
      <point x="1166" y="263" type="curve"/>
      <point x="1109" y="278" type="line"/>
      <point x="1048" y="133"/>
      <point x="1028" y="82"/>
      <point x="989" y="82" type="curve" smooth="yes"/>
      <point x="956" y="82"/>
      <point x="944" y="123"/>
      <point x="944" y="172" type="curve" smooth="yes"/>
      <point x="944" y="233"/>
      <point x="946" y="233"/>
      <point x="983" y="553" type="curve" smooth="yes"/>
      <point x="1014" y="811"/>
      <point x="1024" y="901"/>
      <point x="1024" y="971" type="curve" smooth="yes"/>
      <point x="1024" y="993"/>
      <point x="1024" y="1006"/>
      <point x="1022" y="1024" type="curve"/>
      <point x="850" y="1024" type="line"/>
      <point x="852" y="989"/>
      <point x="854" y="956"/>
      <point x="854" y="915" type="curve" smooth="yes"/>
    </contour>
    <contour>
      <point x="1109" y="278" type="line"/>
      <point x="1041" y="121" type="line"/>
      <point x="1015" y="14" type="line"/>
      <point x="1039" y="2" type="line"/>
      <point x="1009" y="-45"/>
      <point x="991" y="-103"/>
      <point x="1015" y="-159" type="curve" smooth="yes"/>
      <point x="1035" y="-205"/>
      <point x="1042" y="-262"/>
      <point x="942" y="-388" type="curve"/>
      <point x="990" y="-434" type="line"/>
      <point x="1164" y="-285"/>
      <point x="1204" y="-143"/>
      <point x="1132" y="-27" type="curve" smooth="yes"/>
      <point x="1098" y="27"/>
      <point x="1102" y="83"/>
      <point x="1121" y="138" type="curve" smooth="yes"/>
      <point x="1165" y="263" type="line"/>
    </contour>
  </outline>
</glyph>
<glyph name="shcha-cy" format="1">
  <advance width="1872"/>
  <unicode hex="0449"/>
  <outline>
    <contour>
      <point x="1026" y="993"/>
      <point x="1026" y="1006"/>
      <point x="1024" y="1024" type="curve"/>
      <point x="852" y="1024" type="line"/>
      <point x="854" y="989"/>
      <point x="856" y="956"/>
      <point x="856" y="915" type="curve" smooth="yes"/>
      <point x="856" y="569"/>
      <point x="674" y="73"/>
      <point x="481" y="73" type="curve" smooth="yes"/>
      <point x="402" y="73"/>
      <point x="383" y="151"/>
      <point x="383" y="198" type="curve" smooth="yes"/>
      <point x="383" y="415"/>
      <point x="457" y="699"/>
      <point x="457" y="849" type="curve" smooth="yes"/>
      <point x="457" y="976"/>
      <point x="422" y="1047"/>
      <point x="293" y="1047" type="curve" smooth="yes"/>
      <point x="129" y="1047"/>
      <point x="43" y="855"/>
      <point x="25" y="759" type="curve"/>
      <point x="82" y="746" type="line"/>
      <point x="123" y="892"/>
      <point x="189" y="945"/>
      <point x="234" y="945" type="curve" smooth="yes"/>
      <point x="283" y="945"/>
      <point x="289" y="900"/>
      <point x="289" y="849" type="curve" smooth="yes"/>
      <point x="289" y="732"/>
      <point x="221" y="470"/>
      <point x="221" y="243" type="curve" smooth="yes"/>
      <point x="221" y="101"/>
      <point x="272" y="-23"/>
      <point x="436" y="-23" type="curve" smooth="yes"/>
      <point x="548" y="-23"/>
      <point x="684" y="55"/>
      <point x="819" y="428" type="curve"/>
      <point x="826" y="428" type="line"/>
      <point x="801" y="326"/>
      <point x="791" y="289"/>
      <point x="791" y="211" type="curve" smooth="yes"/>
      <point x="791" y="111"/>
      <point x="845" y="-23"/>
      <point x="1009" y="-23" type="curve" smooth="yes"/>
      <point x="1122" y="-23"/>
      <point x="1256" y="61"/>
      <point x="1385" y="434" type="curve"/>
      <point x="1391" y="434" type="line"/>
      <point x="1364" y="285"/>
      <point x="1295" y="-23"/>
      <point x="1512" y="-23" type="curve" smooth="yes"/>
      <point x="1608" y="-23"/>
      <point x="1676" y="42"/>
      <point x="1727" y="116" type="curve"/>
      <point x="1779" y="263" type="line"/>
      <point x="1722" y="278" type="line"/>
      <point x="1660" y="135" type="line"/>
      <point x="1631" y="96"/>
      <point x="1596" y="80"/>
      <point x="1571" y="80" type="curve" smooth="yes"/>
      <point x="1524" y="80"/>
      <point x="1516" y="123"/>
      <point x="1516" y="172" type="curve" smooth="yes"/>
      <point x="1516" y="233"/>
      <point x="1520" y="241"/>
      <point x="1557" y="561" type="curve" smooth="yes"/>
      <point x="1587" y="819"/>
      <point x="1596" y="901"/>
      <point x="1596" y="971" type="curve" smooth="yes"/>
      <point x="1596" y="993"/>
      <point x="1596" y="1006"/>
      <point x="1594" y="1024" type="curve"/>
      <point x="1422" y="1024" type="line"/>
      <point x="1424" y="989"/>
      <point x="1426" y="956"/>
      <point x="1426" y="915" type="curve" smooth="yes"/>
      <point x="1426" y="569"/>
      <point x="1239" y="73"/>
      <point x="1051" y="73" type="curve" smooth="yes"/>
      <point x="971" y="73"/>
      <point x="955" y="143"/>
      <point x="953" y="190" type="curve" smooth="yes"/>
      <point x="948" y="362"/>
      <point x="1026" y="764"/>
      <point x="1026" y="971" type="curve" smooth="yes"/>
    </contour>
    <contour>
      <point x="1723" y="278" type="line"/>
      <point x="1655" y="121" type="line"/>
      <point x="1629" y="14" type="line"/>
      <point x="1653" y="2" type="line"/>
      <point x="1623" y="-45"/>
      <point x="1605" y="-103"/>
      <point x="1629" y="-159" type="curve" smooth="yes"/>
      <point x="1649" y="-205"/>
      <point x="1656" y="-262"/>
      <point x="1556" y="-388" type="curve"/>
      <point x="1604" y="-434" type="line"/>
      <point x="1778" y="-285"/>
      <point x="1818" y="-143"/>
      <point x="1746" y="-27" type="curve" smooth="yes"/>
      <point x="1712" y="27"/>
      <point x="1716" y="83"/>
      <point x="1735" y="138" type="curve" smooth="yes"/>
      <point x="1779" y="263" type="line"/>
    </contour>
  </outline>
</glyph>
<glyph name="softsign-cy" format="1">
  <advance width="1000"/>
  <unicode hex="044C"/>
  <outline>
    <contour>
      <point x="382" y="486" type="line"/>
      <point x="458" y="553"/>
      <point x="532" y="588"/>
      <point x="606" y="588" type="curve" smooth="yes"/>
      <point x="732" y="588"/>
      <point x="761" y="485"/>
      <point x="758" y="335" type="curve" smooth="yes"/>
      <point x="755" y="155"/>
      <point x="672" y="56"/>
      <point x="540" y="56" type="curve" smooth="yes"/>
      <point x="433" y="56"/>
      <point x="350" y="135"/>
      <point x="370" y="281" type="curve" smooth="yes"/>
      <point x="444" y="741" type="line" smooth="yes"/>
      <point x="468" y="896"/>
      <point x="461" y="1047"/>
      <point x="307" y="1047" type="curve" smooth="yes"/>
      <point x="144" y="1047"/>
      <point x="54" y="854"/>
      <point x="31" y="758" type="curve"/>
      <point x="88" y="746" type="line"/>
      <point x="135" y="891"/>
      <point x="200" y="944"/>
      <point x="245" y="944" type="curve" smooth="yes"/>
      <point x="292" y="944"/>
      <point x="299" y="901"/>
      <point x="297" y="852" type="curve" smooth="yes"/>
      <point x="295" y="818"/>
      <point x="287" y="742"/>
      <point x="215" y="300" type="curve" smooth="yes"/>
      <point x="190" y="115"/>
      <point x="274" y="-23"/>
      <point x="484" y="-23" type="curve" smooth="yes"/>
      <point x="741" y="-23"/>
      <point x="923" y="154"/>
      <point x="927" y="377" type="curve" smooth="yes"/>
      <point x="930" y="559"/>
      <point x="804" y="664"/>
      <point x="630" y="664" type="curve" smooth="yes"/>
      <point x="547" y="664"/>
      <point x="471" y="630"/>
      <point x="385" y="580" type="curve"/>
    </contour>
  </outline>
</glyph>
<glyph name="e-cy" format="1">
  <advance width="969"/>
  <unicode hex="0454"/>
  <outline>
    <contour>
      <point x="683" y="484" type="line"/>
      <point x="687" y="564" type="line"/>
      <point x="232" y="564" type="line"/>
      <point x="227" y="480" type="line"/>
    </contour>
    <component base="c"/>
  </outline>
</glyph>
<glyph name="lje-cy" format="1">
  <advance width="1536"/>
  <unicode hex="0459"/>
  <outline>
    <contour>
      <point x="777" y="455" type="line"/>
      <point x="771" y="420"/>
      <point x="763" y="370"/>
      <point x="751" y="300" type="curve" smooth="yes"/>
      <point x="726" y="115"/>
      <point x="810" y="-23"/>
      <point x="1020" y="-23" type="curve" smooth="yes"/>
      <point x="1277" y="-23"/>
      <point x="1459" y="154"/>
      <point x="1463" y="377" type="curve" smooth="yes"/>
      <point x="1466" y="559"/>
      <point x="1340" y="664"/>
      <point x="1166" y="664" type="curve" smooth="yes"/>
      <point x="1083" y="664"/>
      <point x="1007" y="630"/>
      <point x="921" y="580" type="curve"/>
      <point x="918" y="486" type="line"/>
      <point x="994" y="553"/>
      <point x="1068" y="588"/>
      <point x="1142" y="588" type="curve" smooth="yes"/>
      <point x="1268" y="588"/>
      <point x="1297" y="485"/>
      <point x="1294" y="335" type="curve" smooth="yes"/>
      <point x="1291" y="155"/>
      <point x="1208" y="56"/>
      <point x="1076" y="56" type="curve" smooth="yes"/>
      <point x="969" y="56"/>
      <point x="882" y="134"/>
      <point x="906" y="281" type="curve" smooth="yes"/>
      <point x="937" y="473" type="line"/>
    </contour>
    <contour>
      <point x="573" y="973" type="line"/>
      <point x="520" y="565"/>
      <point x="355" y="58"/>
      <point x="171" y="78" type="curve"/>
      <point x="173" y="86"/>
      <point x="174" y="94"/>
      <point x="174" y="108" type="curve" smooth="yes"/>
      <point x="174" y="155"/>
      <point x="130" y="189"/>
      <point x="86" y="189" type="curve" smooth="yes"/>
      <point x="30" y="189"/>
      <point x="-8" y="141"/>
      <point x="-8" y="90" type="curve" smooth="yes"/>
      <point x="-8" y="30"/>
      <point x="48" y="-20"/>
      <point x="125" y="-20" type="curve" smooth="yes"/>
      <point x="431" y="-20"/>
      <point x="589" y="442"/>
      <point x="682" y="973" type="curve"/>
    </contour>
    <contour>
      <point x="676" y="945" type="line"/>
      <point x="659" y="853" type="line"/>
      <point x="668" y="902"/>
      <point x="685" y="945"/>
      <point x="732" y="945" type="curve"/>
    </contour>
    <contour>
      <point x="388" y="1024" type="line"/>
      <point x="380" y="942" type="line"/>
      <point x="948" y="947" type="line"/>
      <point x="954" y="1024" type="line"/>
    </contour>
    <contour>
      <point x="937" y="473" type="line"/>
      <point x="960" y="661"/>
      <point x="988" y="879"/>
      <point x="988" y="971" type="curve" smooth="yes"/>
      <point x="988" y="993"/>
      <point x="988" y="1006"/>
      <point x="986" y="1024" type="curve"/>
      <point x="814" y="1024" type="line"/>
      <point x="816" y="984"/>
      <point x="818" y="946"/>
      <point x="818" y="906" type="curve" smooth="yes"/>
      <point x="818" y="772"/>
      <point x="796" y="604"/>
      <point x="777" y="455" type="curve"/>
    </contour>
  </outline>
</glyph>
<glyph name="dzhe-cy" format="1">
  <advance width="1260"/>
  <unicode hex="045F"/>
  <outline>
    <contour>
      <point x="689" y="-52" type="curve" smooth="yes"/>
      <point x="728" y="-10" type="line"/>
      <point x="688" y="29" type="line"/>
      <point x="578" y="-73" type="line"/>
      <point x="479" y="-152"/>
      <point x="585" y="-250"/>
      <point x="456" y="-418" type="curve"/>
      <point x="502" y="-464" type="line"/>
      <point x="614" y="-369"/>
      <point x="680" y="-278"/>
      <point x="680" y="-193" type="curve" smooth="yes"/>
      <point x="680" y="-129"/>
      <point x="653" y="-90"/>
    </contour>
    <component base="u"/>
  </outline>
</glyph>
<glyph name="Ustraitstroke-cy" format="1">
  <advance width="1313"/>
  <unicode hex="04B0"/>
  <outline>
    <contour>
      <point x="275" y="594" type="line"/>
      <point x="269" y="481" type="line"/>
      <point x="1052" y="489" type="line"/>
      <point x="1058" y="594" type="line"/>
    </contour>
    <component base="Y"/>
  </outline>
</glyph>
<glyph name="endash" format="1">
  <advance width="1194"/>
  <unicode hex="2013"/>
  <outline>
    <contour>
      <point x="136" y="723" type="line"/>
      <point x="129" y="588" type="line"/>
      <point x="1060" y="596" type="line"/>
      <point x="1068" y="723" type="line"/>
    </contour>
  </outline>
</glyph>
<glyph name="emdash" format="1">
  <advance width="1421"/>
  <unicode hex="2014"/>
  <outline>
    <contour>
      <point x="135" y="723" type="line"/>
      <point x="129" y="588" type="line"/>
      <point x="1286" y="596" type="line"/>
      <point x="1292" y="723" type="line"/>
    </contour>
  </outline>
</glyph>
<glyph name="perthousand" format="1">
  <advance width="2607"/>
  <unicode hex="2030"/>
  <outline>
    <contour>
      <point x="237" y="45" type="line"/>
      <point x="317" y="-33" type="line"/>
      <point x="1547" y="1381" type="line"/>
      <point x="1456" y="1467" type="line"/>
    </contour>
    <contour>
      <point x="260" y="1463"/>
      <point x="119" y="1261"/>
      <point x="108" y="1070" type="curve" smooth="yes"/>
      <point x="98" y="873"/>
      <point x="215" y="687"/>
      <point x="459" y="687" type="curve" smooth="yes"/>
      <point x="668" y="687"/>
      <point x="846" y="878"/>
      <point x="856" y="1089" type="curve" smooth="yes"/>
      <point x="866" y="1277"/>
      <point x="754" y="1472"/>
      <point x="500" y="1467" type="curve" smooth="yes"/>
    </contour>
    <contour>
      <point x="651" y="1391"/>
      <point x="686" y="1190"/>
      <point x="678" y="1053" type="curve" smooth="yes"/>
      <point x="672" y="926"/>
      <point x="618" y="764"/>
      <point x="469" y="764" type="curve" smooth="yes"/>
      <point x="307" y="764"/>
      <point x="277" y="969"/>
      <point x="286" y="1100" type="curve" smooth="yes"/>
      <point x="290" y="1204"/>
      <point x="344" y="1391"/>
      <point x="498" y="1391" type="curve" smooth="yes"/>
    </contour>
    <contour>
      <point x="1501" y="669"/>
      <point x="1535" y="468"/>
      <point x="1528" y="331" type="curve" smooth="yes"/>
      <point x="1521" y="204"/>
      <point x="1468" y="42"/>
      <point x="1319" y="42" type="curve" smooth="yes"/>
      <point x="1157" y="42"/>
      <point x="1129" y="247"/>
      <point x="1136" y="378" type="curve" smooth="yes"/>
      <point x="1142" y="482"/>
      <point x="1194" y="669"/>
      <point x="1348" y="669" type="curve" smooth="yes"/>
    </contour>
    <contour>
      <point x="1110" y="743"/>
      <point x="968" y="541"/>
      <point x="958" y="350" type="curve" smooth="yes"/>
      <point x="948" y="153"/>
      <point x="1065" y="-33"/>
      <point x="1309" y="-33" type="curve" smooth="yes"/>
      <point x="1518" y="-33"/>
      <point x="1695" y="158"/>
      <point x="1706" y="369" type="curve" smooth="yes"/>
      <point x="1715" y="557"/>
      <point x="1604" y="752"/>
      <point x="1350" y="747" type="curve" smooth="yes"/>
    </contour>
    <contour>
      <point x="2320" y="669"/>
      <point x="2354" y="468"/>
      <point x="2347" y="331" type="curve" smooth="yes"/>
      <point x="2340" y="204"/>
      <point x="2287" y="42"/>
      <point x="2138" y="42" type="curve" smooth="yes"/>
      <point x="1976" y="42"/>
      <point x="1948" y="247"/>
      <point x="1955" y="378" type="curve" smooth="yes"/>
      <point x="1961" y="482"/>
      <point x="2013" y="669"/>
      <point x="2167" y="669" type="curve" smooth="yes"/>
    </contour>
    <contour>
      <point x="1929" y="743"/>
      <point x="1787" y="541"/>
      <point x="1777" y="350" type="curve" smooth="yes"/>
      <point x="1767" y="153"/>
      <point x="1884" y="-33"/>
      <point x="2128" y="-33" type="curve" smooth="yes"/>
      <point x="2337" y="-33"/>
      <point x="2514" y="158"/>
      <point x="2525" y="369" type="curve" smooth="yes"/>
      <point x="2534" y="557"/>
      <point x="2423" y="752"/>
      <point x="2169" y="747" type="curve" smooth="yes"/>
    </contour>
  </outline>
</glyph>
<glyph name="guilsinglleft" format="1">
  <advance width="756"/>
  <unicode hex="2039"/>
  <outline>
    <contour>
      <point x="51" y="549" type="line"/>
      <point x="51" y="541" type="line"/>
      <point x="567" y="-14" type="line"/>
      <point x="626" y="39" type="line"/>
      <point x="253" y="537" type="line"/>
      <point x="253" y="541" type="line"/>
      <point x="702" y="1069" type="line"/>
      <point x="653" y="1124" type="line"/>
    </contour>
  </outline>
</glyph>
<glyph name="Euro" format="1">
  <advance width="1548"/>
  <unicode hex="20AC"/>
  <outline>
    <contour>
      <point x="615" y="1467"/>
      <point x="380" y="1211"/>
      <point x="294" y="908" type="curve"/>
      <point x="117" y="909" type="line"/>
      <point x="83" y="795" type="line"/>
      <point x="270" y="795" type="line"/>
      <point x="260" y="735"/>
      <point x="256" y="670"/>
      <point x="258" y="609" type="curve"/>
      <point x="101" y="610" type="line"/>
      <point x="66" y="496" type="line"/>
      <point x="269" y="497" type="line"/>
      <point x="319" y="188"/>
      <point x="533" y="-33"/>
      <point x="875" y="-33" type="curve" smooth="yes"/>
      <point x="1043" y="-33"/>
      <point x="1262" y="21"/>
      <point x="1451" y="264" type="curve"/>
      <point x="1397" y="309" type="line"/>
      <point x="1279" y="156"/>
      <point x="1113" y="80"/>
      <point x="935" y="80" type="curve" smooth="yes"/>
      <point x="695" y="80"/>
      <point x="512" y="240"/>
      <point x="456" y="498" type="curve"/>
      <point x="951" y="500" type="line"/>
      <point x="1012" y="606" type="line"/>
      <point x="440" y="608" type="line"/>
      <point x="435" y="667"/>
      <point x="438" y="735"/>
      <point x="445" y="796" type="curve"/>
      <point x="1107" y="799" type="line"/>
      <point x="1168" y="905" type="line"/>
      <point x="465" y="908" type="line"/>
      <point x="538" y="1214"/>
      <point x="749" y="1381"/>
      <point x="978" y="1381" type="curve" smooth="yes"/>
      <point x="1215" y="1381"/>
      <point x="1307" y="1234"/>
      <point x="1326" y="1039" type="curve"/>
      <point x="1399" y="1039" type="line"/>
      <point x="1461" y="1453" type="line"/>
      <point x="1350" y="1453" type="line"/>
      <point x="1342" y="1352" type="line"/>
      <point x="1340" y="1352" type="line"/>
      <point x="1229" y="1428"/>
      <point x="1116" y="1467"/>
      <point x="969" y="1467" type="curve" smooth="yes"/>
    </contour>
  </outline>
</glyph>
<glyph name="uni2126" format="1">
  <advance width="1571"/>
  <unicode hex="2126"/>
  <outline>
    <contour>
      <point x="364" y="1467"/>
      <point x="129" y="1100"/>
      <point x="119" y="776" type="curve" smooth="yes"/>
      <point x="109" y="468"/>
      <point x="307" y="217"/>
      <point x="572" y="129" type="curve"/>
      <point x="572" y="127" type="line"/>
      <point x="428" y="129" type="line" smooth="yes"/>
      <point x="254" y="131"/>
      <point x="178" y="154"/>
      <point x="184" y="272" type="curve"/>
      <point x="123" y="272" type="line"/>
      <point x="121" y="0" type="line"/>
      <point x="657" y="0" type="line"/>
      <point x="665" y="150" type="line"/>
      <point x="487" y="172"/>
      <point x="291" y="389"/>
      <point x="311" y="772" type="curve"/>
      <point x="325" y="1075"/>
      <point x="506" y="1385"/>
      <point x="817" y="1385" type="curve" smooth="yes"/>
      <point x="1136" y="1385"/>
      <point x="1292" y="1087"/>
      <point x="1259" y="731" type="curve"/>
      <point x="1233" y="432"/>
      <point x="1044" y="195"/>
      <point x="870" y="150" type="curve"/>
      <point x="862" y="0" type="line"/>
      <point x="1405" y="0" type="line"/>
      <point x="1431" y="272" type="line"/>
      <point x="1370" y="272" type="line"/>
      <point x="1364" y="154"/>
      <point x="1284" y="131"/>
      <point x="1110" y="129" type="curve" smooth="yes"/>
      <point x="952" y="127" type="line"/>
      <point x="952" y="129" type="line"/>
      <point x="1186" y="218"/>
      <point x="1432" y="464"/>
      <point x="1458" y="772" type="curve" smooth="yes"/>
      <point x="1483" y="1061"/>
      <point x="1306" y="1467"/>
      <point x="827" y="1467" type="curve" smooth="yes"/>
    </contour>
  </outline>
</glyph>
<glyph name="partialdiff" format="1">
  <advance width="1030"/>
  <unicode hex="2202"/>
  <outline>
    <contour>
      <point x="297" y="1484" type="line"/>
      <point x="686" y="1495"/>
      <point x="765" y="1218"/>
      <point x="772" y="940" type="curve"/>
      <point x="721" y="998"/>
      <point x="648" y="1027"/>
      <point x="572" y="1030" type="curve" smooth="yes"/>
      <point x="320" y="1038"/>
      <point x="80" y="803"/>
      <point x="60" y="428" type="curve" smooth="yes"/>
      <point x="45" y="131"/>
      <point x="201" y="-23"/>
      <point x="385" y="-23" type="curve" smooth="yes"/>
      <point x="651" y="-23"/>
      <point x="901" y="160"/>
      <point x="930" y="713" type="curve" smooth="yes"/>
      <point x="955" y="1196"/>
      <point x="803" y="1594"/>
      <point x="301" y="1553" type="curve"/>
    </contour>
    <contour>
      <point x="660" y="948"/>
      <point x="729" y="909"/>
      <point x="772" y="815" type="curve"/>
      <point x="768" y="721" type="line"/>
      <point x="754" y="469"/>
      <point x="662" y="55"/>
      <point x="426" y="55" type="curve" smooth="yes"/>
      <point x="307" y="55"/>
      <point x="219" y="196"/>
      <point x="234" y="450" type="curve"/>
      <point x="250" y="776"/>
      <point x="424" y="948"/>
      <point x="567" y="948" type="curve" smooth="yes"/>
    </contour>
  </outline>
</glyph>
<glyph name="radical" format="1">
  <advance width="1712"/>
  <unicode hex="221A"/>
  <outline>
    <contour>
      <point x="1235" y="1765" type="line"/>
      <point x="639" y="234" type="line"/>
      <point x="420" y="1024" type="line"/>
      <point x="22" y="1024" type="line"/>
      <point x="14" y="956" type="line"/>
      <point x="270" y="950" type="line"/>
      <point x="273" y="917"/>
      <point x="287" y="868"/>
      <point x="313" y="780" type="curve" smooth="yes"/>
      <point x="545" y="-6" type="line"/>
      <point x="637" y="-6" type="line"/>
      <point x="1300" y="1692" type="line"/>
      <point x="1843" y="1686" type="line"/>
      <point x="1851" y="1765" type="line"/>
    </contour>
  </outline>
</glyph>
<glyph name="lessequal" format="1">
  <advance width="1133"/>
  <unicode hex="2264"/>
  <outline>
    <contour>
      <point x="109" y="743" type="line"/>
      <point x="103" y="609" type="line"/>
      <point x="992" y="212" type="line"/>
      <point x="1000" y="339" type="line"/>
      <point x="241" y="681" type="line"/>
      <point x="241" y="683" type="line"/>
      <point x="1035" y="1025" type="line"/>
      <point x="1043" y="1148" type="line"/>
    </contour>
    <contour>
      <point x="76" y="0" type="line"/>
      <point x="988" y="0" type="line"/>
      <point x="993" y="102" type="line"/>
      <point x="81" y="111" type="line"/>
    </contour>
  </outline>
</glyph>
<glyph name="Acute" format="1">
  <advance width="592"/>
  <outline>
    <contour>
      <point x="135" y="1556" type="line"/>
      <point x="92" y="1614" type="line"/>
      <point x="352" y="1855" type="line" smooth="yes"/>
      <point x="430" y="1927"/>
      <point x="475" y="1886"/>
      <point x="486" y="1874" type="curve" smooth="yes"/>
      <point x="500" y="1858"/>
      <point x="524" y="1804"/>
      <point x="434" y="1747" type="curve" smooth="yes"/>
    </contour>
    <contour>
      <point x="273" y="1434" type="move" name="_top"/>
    </contour>
  </outline>
</glyph>
<glyph name="Circumflex" format="1">
  <advance width="961"/>
  <outline>
    <contour>
      <point x="92" y="1618" type="line"/>
      <point x="123" y="1563" type="line"/>
      <point x="471" y="1741" type="line"/>
      <point x="475" y="1741" type="line"/>
      <point x="831" y="1559" type="line"/>
      <point x="868" y="1616" type="line"/>
      <point x="498" y="1905" type="line"/>
      <point x="494" y="1905" type="line"/>
    </contour>
  </outline>
</glyph>
<glyph name="Grave" format="1">
  <advance width="592"/>
  <outline>
    <contour>
      <point x="457" y="1556" type="line"/>
      <point x="500" y="1614" type="line"/>
      <point x="240" y="1855" type="line" smooth="yes"/>
      <point x="162" y="1927"/>
      <point x="117" y="1886"/>
      <point x="106" y="1874" type="curve" smooth="yes"/>
      <point x="92" y="1858"/>
      <point x="68" y="1804"/>
      <point x="158" y="1747" type="curve" smooth="yes"/>
    </contour>
  </outline>
</glyph>
<glyph name="Tilde" format="1">
  <advance width="977"/>
  <outline>
    <contour>
      <point x="432" y="1737"/>
      <point x="494" y="1602"/>
      <point x="635" y="1602" type="curve" smooth="yes"/>
      <point x="725" y="1602"/>
      <point x="819" y="1642"/>
      <point x="885" y="1810" type="curve"/>
      <point x="831" y="1839" type="line"/>
      <point x="786" y="1767"/>
      <point x="727" y="1718"/>
      <point x="653" y="1718" type="curve" smooth="yes"/>
      <point x="543" y="1718"/>
      <point x="496" y="1858"/>
      <point x="334" y="1853" type="curve" smooth="yes"/>
      <point x="248" y="1851"/>
      <point x="145" y="1774"/>
      <point x="92" y="1655" type="curve"/>
      <point x="150" y="1620" type="line"/>
      <point x="201" y="1696"/>
      <point x="258" y="1737"/>
      <point x="317" y="1737" type="curve" smooth="yes"/>
    </contour>
  </outline>
</glyph>
<glyph name=".notdef" format="1">
  <advance width="1031"/>
  <outline>
    <contour>
      <point x="60" y="0" type="line"/>
      <point x="908" y="0" type="line"/>
      <point x="961" y="1024" type="line"/>
      <point x="113" y="1024" type="line"/>
    </contour>
    <contour>
      <point x="274" y="949" type="line"/>
      <point x="792" y="949" type="line"/>
      <point x="747" y="75" type="line"/>
      <point x="229" y="75" type="line"/>
    </contour>
  </outline>
</glyph>
